# Blender 4.1.1
# www.blender.org
mtllib Water_cooler.mtl
o Cylinder.002
v 0.316809 0.038222 -0.106068
v 0.280475 0.000090 -0.093903
v 0.290029 0.038222 -0.165836
v 0.256766 0.000090 -0.146817
v 0.252103 0.038222 -0.219231
v 0.223190 0.000090 -0.194088
v 0.204489 0.038222 -0.264202
v 0.181037 0.000090 -0.233901
v 0.149017 0.038222 -0.299019
v 0.131926 0.000090 -0.264725
v 0.087818 0.038222 -0.322345
v 0.077746 0.000090 -0.285376
v 0.023244 0.038222 -0.333284
v 0.020578 0.000090 -0.295060
v -0.042223 0.038222 -0.331415
v -0.037381 0.000090 -0.293405
v -0.106068 0.038222 -0.316809
v -0.093903 0.000090 -0.280475
v -0.165836 0.038222 -0.290029
v -0.146816 0.000090 -0.256766
v -0.219231 0.038222 -0.252103
v -0.194088 0.000090 -0.223190
v -0.264202 0.038222 -0.204489
v -0.233901 0.000090 -0.181037
v -0.299019 0.038222 -0.149017
v -0.264725 0.000090 -0.131927
v -0.322345 0.038222 -0.087818
v -0.285376 0.000090 -0.077746
v -0.333284 0.038222 -0.023244
v -0.295060 0.000090 -0.020578
v -0.331415 0.038222 0.042223
v -0.293405 0.000090 0.037380
v 0.293405 0.000090 -0.037381
v 0.331415 0.038222 -0.042223
v 0.295060 0.000090 0.020578
v 0.333284 0.038222 0.023244
v 0.285376 0.000090 0.077746
v 0.322345 0.038222 0.087818
v 0.264725 0.000090 0.131926
v 0.299019 0.038222 0.149017
v 0.233901 0.000090 0.181037
v 0.264202 0.038222 0.204489
v 0.194088 0.000090 0.223190
v 0.219231 0.038222 0.252103
v 0.146816 0.000090 0.256766
v 0.165836 0.038222 0.290029
v 0.093903 0.000090 0.280475
v 0.106068 0.038222 0.316809
v 0.037381 0.000090 0.293405
v 0.042223 0.038222 0.331414
v -0.020578 0.000090 0.295060
v -0.023244 0.038222 0.333284
v -0.077746 0.000090 0.285376
v -0.087818 0.038222 0.322345
v -0.131926 0.000090 0.264725
v -0.149017 0.038222 0.299019
v -0.181037 0.000090 0.233901
v -0.204489 0.038222 0.264202
v -0.223190 0.000090 0.194088
v -0.252103 0.038222 0.219231
v -0.256766 0.000090 0.146816
v -0.290029 0.038222 0.165836
v -0.280475 0.000090 0.093903
v -0.316809 0.038222 0.106067
v -0.331414 0.819502 0.042223
v -0.287422 0.863636 0.036619
v -0.289043 0.863636 -0.020158
v -0.333284 0.819502 -0.023244
v -0.279557 0.863636 -0.076161
v -0.322345 0.819502 -0.087818
v -0.259327 0.863636 -0.129236
v -0.299019 0.819502 -0.149017
v -0.229131 0.863636 -0.177345
v -0.264201 0.819502 -0.204489
v -0.190130 0.863636 -0.218639
v -0.219231 0.819502 -0.252103
v -0.143822 0.863636 -0.251530
v -0.165836 0.819502 -0.290029
v -0.091988 0.863636 -0.274755
v -0.106067 0.819502 -0.316809
v -0.036618 0.863636 -0.287422
v -0.042223 0.819502 -0.331414
v 0.020159 0.863636 -0.289043
v 0.023244 0.819502 -0.333284
v 0.076161 0.863636 -0.279557
v 0.087818 0.819502 -0.322345
v 0.129237 0.863636 -0.259327
v 0.149017 0.819502 -0.299019
v 0.177346 0.863636 -0.229131
v 0.204490 0.819502 -0.264201
v 0.218639 0.863636 -0.190130
v 0.252104 0.819502 -0.219231
v 0.251531 0.863636 -0.143822
v 0.290029 0.819502 -0.165836
v 0.274756 0.863636 -0.091988
v 0.316809 0.819502 -0.106067
v 0.287423 0.863636 -0.036618
v 0.331415 0.819501 -0.042223
v 0.289044 0.863636 0.020159
v 0.333284 0.819501 0.023244
v 0.279557 0.863636 0.076161
v 0.322345 0.819501 0.087818
v 0.259327 0.863636 0.129237
v 0.299019 0.819501 0.149017
v 0.229132 0.863636 0.177345
v 0.264202 0.819501 0.204489
v 0.190131 0.863636 0.218639
v 0.219232 0.819501 0.252103
v 0.143823 0.863636 0.251531
v 0.165836 0.819501 0.290029
v 0.091988 0.863636 0.274756
v 0.106068 0.819501 0.316809
v 0.036619 0.863636 0.287423
v 0.042223 0.819501 0.331415
v -0.020158 0.863636 0.289044
v -0.023244 0.819501 0.333284
v -0.076161 0.863636 0.279557
v -0.087818 0.819501 0.322345
v -0.129236 0.863636 0.259327
v -0.149017 0.819502 0.299019
v -0.177345 0.863636 0.229132
v -0.204489 0.819502 0.264202
v -0.218639 0.863636 0.190131
v -0.252103 0.819502 0.219232
v -0.251530 0.863636 0.143823
v -0.290029 0.819502 0.165836
v -0.274755 0.863636 0.091988
v -0.316809 0.819502 0.106068
v 0.059773 2.088881 0.114443
v 0.019475 1.956722 0.122505
v 0.081518 2.088881 0.139183
v 0.068351 1.956722 0.178113
v 0.113816 2.088881 0.132721
v 0.140947 1.956722 0.163589
v 0.124369 2.088881 0.101520
v 0.164667 1.956722 0.093457
v 0.102624 2.088881 0.076780
v 0.115791 1.956722 0.037849
v 0.070326 2.088881 0.083241
v 0.043195 1.956722 0.052373
v 0.059397 2.077743 0.112144
v 0.018630 1.945584 0.117338
v 0.079339 2.077743 0.138359
v 0.063454 1.945584 0.176261
v 0.112013 2.077743 0.134196
v 0.136895 1.945584 0.166905
v 0.124745 2.077743 0.103818
v 0.165512 1.945584 0.098625
v 0.104803 2.077743 0.077603
v 0.120689 1.945584 0.039701
v 0.072129 2.077743 0.081766
v 0.047247 1.945584 0.049057
v 0.063453 1.742320 0.176261
v 0.018630 1.742320 0.117338
v 0.136895 1.742320 0.166905
v 0.165512 1.742320 0.098624
v 0.120689 1.742320 0.039701
v 0.047247 1.742320 0.049057
v -0.293405 0.869604 0.037381
v -0.331414 0.907736 0.042223
v -0.295060 0.869604 -0.020578
v -0.333283 0.907736 -0.023244
v -0.285375 0.869604 -0.077746
v -0.322345 0.907736 -0.087818
v -0.264724 0.869604 -0.131926
v -0.299018 0.907736 -0.149017
v -0.233900 0.869604 -0.181037
v -0.264201 0.907736 -0.204489
v -0.194088 0.869604 -0.223190
v -0.219231 0.907736 -0.252103
v -0.146816 0.869604 -0.256766
v -0.165835 0.907736 -0.290029
v -0.093902 0.869604 -0.280475
v -0.106067 0.907736 -0.316809
v -0.037380 0.869604 -0.293405
v -0.042223 0.907736 -0.331415
v 0.020579 0.869604 -0.295060
v 0.023245 0.907736 -0.333284
v 0.077747 0.869604 -0.285376
v 0.087818 0.907736 -0.322345
v 0.131927 0.869604 -0.264725
v 0.149017 0.907736 -0.299019
v 0.181037 0.869604 -0.233901
v 0.204490 0.907736 -0.264202
v 0.223190 0.869604 -0.194088
v 0.252104 0.907736 -0.219231
v 0.256767 0.869604 -0.146817
v 0.290030 0.907736 -0.165836
v 0.280475 0.869604 -0.093903
v 0.316810 0.907736 -0.106068
v 0.293406 0.869604 -0.037381
v 0.331415 0.907736 -0.042223
v 0.295061 0.869604 0.020578
v 0.333284 0.907736 0.023244
v 0.285376 0.869604 0.077746
v 0.322346 0.907736 0.087818
v 0.264726 0.869604 0.131926
v 0.299020 0.907736 0.149017
v 0.233901 0.869604 0.181037
v 0.264202 0.907736 0.204489
v 0.194089 0.869604 0.223190
v 0.219232 0.907736 0.252103
v 0.146817 0.869604 0.256766
v 0.165836 0.907736 0.290029
v 0.093903 0.869604 0.280475
v 0.106068 0.907736 0.316809
v 0.037381 0.869604 0.293405
v 0.042224 0.907736 0.331415
v -0.020578 0.869604 0.295060
v -0.023243 0.907736 0.333284
v -0.077746 0.869604 0.285376
v -0.087817 0.907736 0.322345
v -0.131926 0.869604 0.264725
v -0.149016 0.907736 0.299019
v -0.181036 0.869604 0.233901
v -0.204489 0.907736 0.264202
v -0.223189 0.869604 0.194088
v -0.252103 0.907736 0.219231
v -0.256766 0.869604 0.146816
v -0.290029 0.907736 0.165836
v -0.280474 0.869604 0.093903
v -0.316809 0.907736 0.106067
v -0.428518 1.731739 0.054595
v -0.231590 1.743504 0.029506
v -0.232896 1.743504 -0.016242
v -0.430935 1.731739 -0.030054
v -0.225252 1.743504 -0.061366
v -0.416791 1.731739 -0.113548
v -0.208952 1.743504 -0.104132
v -0.386630 1.731739 -0.192678
v -0.184622 1.743504 -0.142896
v -0.341612 1.731739 -0.264404
v -0.153197 1.743504 -0.176168
v -0.283465 1.731739 -0.325969
v -0.115884 1.743504 -0.202670
v -0.214425 1.731739 -0.375007
v -0.074118 1.743504 -0.221384
v -0.137144 1.731739 -0.409633
v -0.029504 1.743504 -0.231590
v -0.054594 1.731739 -0.428518
v 0.016244 1.743504 -0.232896
v 0.030055 1.731739 -0.430935
v 0.061368 1.743504 -0.225253
v 0.113549 1.731739 -0.416791
v 0.104133 1.743504 -0.208952
v 0.192679 1.731739 -0.386631
v 0.142897 1.743504 -0.184622
v 0.264405 1.731739 -0.341612
v 0.176169 1.743504 -0.153197
v 0.325970 1.731739 -0.283465
v 0.202671 1.743504 -0.115885
v 0.375008 1.731739 -0.214425
v 0.221385 1.743504 -0.074119
v 0.409635 1.731739 -0.137145
v 0.231591 1.743504 -0.029505
v 0.428519 1.731739 -0.054594
v 0.232898 1.743504 0.016243
v 0.430936 1.731739 0.030055
v 0.225254 1.743504 0.061367
v 0.416793 1.731739 0.113549
v 0.208954 1.743504 0.104132
v 0.386632 1.731739 0.192679
v 0.184623 1.743504 0.142896
v 0.341613 1.731739 0.264405
v 0.153198 1.743504 0.176169
v 0.283467 1.731739 0.325969
v 0.115886 1.743504 0.202671
v 0.214426 1.731739 0.375007
v 0.074120 1.743504 0.221385
v 0.137146 1.731739 0.409634
v 0.029506 1.743504 0.231591
v 0.054595 1.731739 0.428519
v -0.016242 1.743504 0.232897
v -0.030054 1.731739 0.430936
v -0.061366 1.743504 0.225253
v -0.113548 1.731739 0.416792
v -0.104131 1.743504 0.208953
v -0.192678 1.731739 0.386631
v -0.142895 1.743504 0.184623
v -0.264404 1.731739 0.341613
v -0.176167 1.743504 0.153198
v -0.325968 1.731739 0.283466
v -0.202670 1.743504 0.115886
v -0.375006 1.731739 0.214426
v -0.221384 1.743504 0.074120
v -0.409633 1.731739 0.137145
v -0.331414 1.139778 0.042223
v -0.333283 1.139778 -0.023244
v -0.316809 1.139778 0.106068
v -0.322345 1.139778 -0.087818
v -0.299018 1.139778 -0.149017
v -0.264201 1.139778 -0.204489
v -0.219231 1.139778 -0.252103
v -0.165835 1.139778 -0.290029
v -0.106067 1.139778 -0.316809
v -0.042222 1.139778 -0.331414
v 0.023245 1.139778 -0.333284
v 0.087818 1.139778 -0.322345
v 0.149017 1.139778 -0.299019
v 0.204490 1.139778 -0.264202
v 0.252104 1.139778 -0.219231
v 0.290030 1.139778 -0.165836
v 0.316810 1.139778 -0.106067
v 0.331415 1.139778 -0.042223
v 0.333284 1.139778 0.023244
v 0.322346 1.139778 0.087818
v 0.299020 1.139778 0.149017
v 0.264202 1.139778 0.204489
v 0.219232 1.139778 0.252103
v 0.165836 1.139778 0.290029
v 0.106068 1.139778 0.316809
v 0.042224 1.139778 0.331415
v -0.023243 1.139778 0.333284
v -0.087817 1.139778 0.322345
v -0.149016 1.139778 0.299019
v -0.204489 1.139778 0.264202
v -0.252103 1.139778 0.219231
v -0.290028 1.139778 0.165836
v -0.428518 1.297596 0.054594
v -0.409633 1.297596 0.137145
v -0.430935 1.297596 -0.030054
v -0.416791 1.297596 -0.113548
v -0.386631 1.297596 -0.192679
v -0.341612 1.297596 -0.264404
v -0.283465 1.297596 -0.325969
v -0.214425 1.297596 -0.375007
v -0.137145 1.297596 -0.409634
v -0.054594 1.297596 -0.428518
v 0.030055 1.297596 -0.430935
v 0.113549 1.297596 -0.416792
v 0.192679 1.297596 -0.386631
v 0.264405 1.297596 -0.341612
v 0.325970 1.297596 -0.283466
v 0.375008 1.297596 -0.214425
v 0.409635 1.297596 -0.137145
v 0.428519 1.297596 -0.054594
v 0.430936 1.297596 0.030055
v 0.416793 1.297596 0.113548
v 0.386632 1.297596 0.192679
v 0.341613 1.297596 0.264404
v 0.283466 1.297596 0.325969
v 0.214426 1.297596 0.375007
v 0.137146 1.297596 0.409634
v 0.054595 1.297596 0.428519
v -0.030054 1.297596 0.430936
v -0.113548 1.297596 0.416792
v -0.192678 1.297596 0.386631
v -0.264404 1.297596 0.341613
v -0.325968 1.297596 0.283466
v -0.375006 1.297596 0.214426
v -0.405211 1.256023 -0.028260
v -0.391911 1.256023 -0.106770
v -0.363551 1.256023 -0.181177
v -0.321220 1.256023 -0.248621
v -0.266544 1.256023 -0.306511
v -0.201625 1.256023 -0.352622
v -0.128958 1.256023 -0.385181
v -0.051335 1.256023 -0.402939
v 0.028261 1.256023 -0.405211
v 0.106771 1.256023 -0.391912
v 0.181178 1.256023 -0.363552
v 0.248622 1.256023 -0.321220
v 0.306512 1.256023 -0.266545
v 0.352622 1.256023 -0.201626
v 0.385182 1.256023 -0.128958
v 0.402939 1.256023 -0.051335
v 0.405212 1.256023 0.028261
v 0.391913 1.256023 0.106770
v 0.363552 1.256023 0.181177
v 0.321221 1.256022 0.248621
v 0.266545 1.256022 0.306511
v 0.201626 1.256022 0.352622
v 0.128959 1.256022 0.385181
v 0.051336 1.256022 0.402939
v -0.028260 1.256022 0.405212
v -0.106770 1.256023 0.391912
v -0.181176 1.256023 0.363552
v -0.248620 1.256023 0.321220
v -0.306510 1.256023 0.266545
v -0.352621 1.256023 0.201626
v -0.402938 1.256023 0.051336
v -0.385181 1.256023 0.128959
v -0.371636 1.788805 0.047348
v -0.373732 1.788805 -0.026065
v -0.361466 1.788805 -0.098476
v -0.335309 1.788805 -0.167102
v -0.296266 1.788805 -0.229307
v -0.245837 1.788805 -0.282699
v -0.185962 1.788805 -0.325228
v -0.118940 1.788805 -0.355258
v -0.047347 1.788805 -0.371636
v 0.026066 1.788805 -0.373732
v 0.098477 1.788805 -0.361466
v 0.167103 1.788805 -0.335309
v 0.229308 1.788805 -0.296266
v 0.282701 1.788804 -0.245838
v 0.325229 1.788804 -0.185962
v 0.355260 1.788804 -0.118940
v 0.371637 1.788804 -0.047347
v 0.373734 1.788804 0.026065
v 0.361467 1.788804 0.098476
v 0.335310 1.788804 0.167103
v 0.296267 1.788804 0.229307
v 0.245839 1.788804 0.282700
v 0.185963 1.788804 0.325229
v 0.118941 1.788804 0.355259
v 0.047348 1.788804 0.371637
v -0.026064 1.788804 0.373733
v -0.098475 1.788804 0.361467
v -0.167101 1.788804 0.335310
v -0.229306 1.788804 0.296267
v -0.282699 1.788805 0.245839
v -0.325227 1.788805 0.185963
v -0.355258 1.788805 0.118941
v -0.316761 1.788805 0.040357
v -0.318547 1.788805 -0.022216
v -0.308092 1.788805 -0.083935
v -0.285797 1.788805 -0.142428
v -0.252519 1.788805 -0.195448
v -0.209537 1.788805 -0.240956
v -0.158503 1.788805 -0.277205
v -0.101377 1.788805 -0.302801
v -0.040355 1.788805 -0.316761
v 0.022217 1.788805 -0.318548
v 0.083936 1.788805 -0.308093
v 0.142429 1.788805 -0.285798
v 0.195449 1.788805 -0.252520
v 0.240958 1.788805 -0.209538
v 0.277207 1.788804 -0.158503
v 0.302803 1.788804 -0.101378
v 0.316762 1.788804 -0.040356
v 0.318549 1.788804 0.022217
v 0.308094 1.788804 0.083935
v 0.285799 1.788804 0.142429
v 0.252521 1.788804 0.195448
v 0.209539 1.788804 0.240957
v 0.158505 1.788804 0.277206
v 0.101379 1.788804 0.302802
v 0.040357 1.788804 0.316762
v -0.022215 1.788804 0.318548
v -0.083934 1.788804 0.308093
v -0.142427 1.788804 0.285799
v -0.195447 1.788804 0.252521
v -0.240956 1.788804 0.209539
v -0.277205 1.788805 0.158504
v -0.302801 1.788805 0.101378
v 0.136342 1.272458 -0.280144
v 0.117285 1.272458 -0.328311
v 0.149471 1.272458 -0.368898
v 0.200713 1.272458 -0.361318
v 0.219770 1.272458 -0.313151
v 0.187584 1.272458 -0.272564
v 0.136903 1.078632 -0.279832
v 0.120512 1.063309 -0.326520
v 0.152136 1.066538 -0.367419
v 0.200152 1.085091 -0.361630
v 0.216543 1.100414 -0.314942
v 0.184919 1.097185 -0.274043
v 0.166613 1.044651 -0.263337
v 0.169167 1.007657 -0.299505
v 0.196799 1.015453 -0.342621
v 0.221876 1.060242 -0.349568
v 0.219322 1.097236 -0.313399
v 0.191690 1.089440 -0.270284
v 0.196630 1.045009 -0.246776
v 0.214873 1.004332 -0.273155
v 0.244030 1.011770 -0.315319
v 0.254945 1.059884 -0.331103
v 0.236703 1.100561 -0.304723
v 0.207545 1.093123 -0.262560
v 0.238923 1.045009 -0.210922
v 0.261961 1.004332 -0.233236
v 0.298783 1.011770 -0.268902
v 0.312568 1.059884 -0.282253
v 0.289530 1.100561 -0.259939
v 0.252707 1.093123 -0.224274
v 0.273407 1.045009 -0.167507
v 0.300356 1.004332 -0.184898
v 0.343429 1.011770 -0.212694
v 0.359554 1.059884 -0.223100
v 0.332605 1.100561 -0.205709
v 0.289532 1.093123 -0.177913
v 0.286141 1.046502 -0.141905
v 0.306726 1.008350 -0.170258
v 0.353563 1.014294 -0.191571
v 0.379814 1.058391 -0.184530
v 0.359230 1.096543 -0.156176
v 0.312393 1.090598 -0.134864
v 0.297999 1.020569 -0.118842
v 0.308365 1.004766 -0.167071
v 0.356794 1.007228 -0.185287
v 0.394857 1.025494 -0.155273
v 0.384491 1.041297 -0.107044
v 0.336062 1.038834 -0.088828
v 0.297775 0.890723 -0.119277
v 0.306703 0.890724 -0.170302
v 0.355356 0.890724 -0.188082
v 0.395081 0.890723 -0.154838
v 0.386153 0.890723 -0.103813
v 0.337500 0.890723 -0.086033
v 0.201415 1.297331 -0.237700
v 0.194869 1.297331 -0.289085
v 0.236096 1.297331 -0.320447
v 0.283870 1.297331 -0.300424
v 0.290416 1.297331 -0.249039
v 0.249189 1.297331 -0.217678
v 0.201882 1.165964 -0.237259
v 0.197552 1.150640 -0.286551
v 0.238312 1.153870 -0.318354
v 0.283403 1.172422 -0.300865
v 0.287733 1.187745 -0.251573
v 0.246973 1.184516 -0.219771
v 0.226587 1.131982 -0.213926
v 0.238011 1.094988 -0.248338
v 0.275451 1.102784 -0.283277
v 0.301468 1.147574 -0.283803
v 0.290044 1.184568 -0.249391
v 0.252603 1.176772 -0.214453
v 0.251574 1.132340 -0.190453
v 0.275776 1.091664 -0.211499
v 0.314458 1.099102 -0.245138
v 0.328939 1.147216 -0.257731
v 0.304737 1.187892 -0.236685
v 0.266055 1.180454 -0.203046
v 0.283680 1.132340 -0.145251
v 0.311523 1.091664 -0.161171
v 0.356025 1.099101 -0.186617
v 0.372684 1.147215 -0.196142
v 0.344842 1.187892 -0.180222
v 0.300340 1.180454 -0.154776
v 0.306351 1.132340 -0.094653
v 0.336765 1.091664 -0.104836
v 0.385376 1.099101 -0.121111
v 0.403574 1.147215 -0.127203
v 0.373160 1.187892 -0.117021
v 0.324549 1.180454 -0.100746
v 0.312355 1.133833 -0.066696
v 0.339315 1.095681 -0.089075
v 0.389968 1.101626 -0.098137
v 0.413662 1.145723 -0.084820
v 0.386702 1.183874 -0.062441
v 0.336048 1.177930 -0.053379
v 0.318138 1.107900 -0.041417
v 0.340114 1.092097 -0.085582
v 0.391544 1.094560 -0.091249
v 0.420998 1.112825 -0.052751
v 0.399022 1.128628 -0.008586
v 0.347592 1.126166 -0.002919
v 0.318028 0.891313 -0.041894
v 0.339304 0.891313 -0.089123
v 0.390843 0.891313 -0.094313
v 0.421107 0.891313 -0.052274
v 0.399832 0.891313 -0.005044
v 0.348292 0.891313 0.000145
v 0.297775 0.982368 -0.119277
v 0.306704 0.982368 -0.170302
v 0.355356 0.982367 -0.188082
v 0.395081 0.982367 -0.154838
v 0.386153 0.982367 -0.103813
v 0.337500 0.982367 -0.086033
v 0.318028 0.982183 -0.041894
v 0.339304 0.982183 -0.089123
v 0.390843 0.982183 -0.094313
v 0.421107 0.982183 -0.052274
v 0.399832 0.982183 -0.005044
v 0.348293 0.982183 0.000145
v 0.289374 0.975690 -0.116207
v 0.289374 0.897401 -0.116207
v 0.299844 0.975690 -0.176043
v 0.299844 0.897401 -0.176043
v 0.356898 0.975690 -0.196893
v 0.356898 0.897401 -0.196893
v 0.403482 0.975690 -0.157908
v 0.403482 0.897401 -0.157908
v 0.393012 0.975690 -0.098073
v 0.393012 0.897401 -0.098073
v 0.335958 0.975690 -0.077222
v 0.335958 0.897401 -0.077222
v 0.309129 0.975574 -0.040998
v 0.309129 0.897772 -0.040998
v 0.334078 0.975574 -0.096382
v 0.334078 0.897772 -0.096382
v 0.394517 0.975574 -0.102468
v 0.394517 0.897772 -0.102468
v 0.430007 0.975574 -0.053170
v 0.430007 0.897772 -0.053170
v 0.405058 0.975574 0.002215
v 0.405058 0.897772 0.002215
v 0.344619 0.975574 0.008301
v 0.344619 0.897772 0.008301
v -0.097752 1.775863 0.030578
v -0.110363 1.805814 -0.103954
v -0.080089 1.748201 0.027795
v -0.070661 1.743638 -0.110209
v -0.047924 1.748416 0.034889
v 0.001634 1.744120 -0.094263
v -0.033423 1.776292 0.044767
v 0.034228 1.806777 -0.072062
v -0.051087 1.803953 0.047550
v -0.005474 1.868952 -0.065806
v -0.083251 1.803739 0.040456
v -0.077770 1.868471 -0.081752
v 0.251633 -0.002569 -0.260541
v -0.060310 -0.002569 -0.038576
v -0.131013 -0.002569 0.337692
v 0.131014 -0.002569 -0.337692
v 0.060310 -0.002569 0.038575
v -0.251633 -0.002569 0.260540
v 0.251633 0.495131 -0.260541
v 0.193404 0.603197 -0.169505
v 0.072785 0.603197 -0.246657
v 0.131014 0.495132 -0.337692
v 0.060310 0.603197 0.038576
v -0.060309 0.603197 -0.038576
v -0.131013 0.495131 0.337692
v -0.072784 0.603197 0.246656
v -0.193404 0.603197 0.169505
v -0.251633 0.495131 0.260540
v -0.260540 -0.002569 -0.251633
v -0.038576 -0.002569 0.060309
v 0.337692 -0.002569 0.131013
v -0.337692 -0.002569 -0.131014
v 0.038576 -0.002569 -0.060310
v 0.260541 -0.002569 0.251633
v -0.260540 0.495132 -0.251633
v -0.169504 0.603197 -0.193404
v -0.246656 0.603197 -0.072785
v -0.337692 0.495132 -0.131014
v 0.038576 0.603197 -0.060310
v -0.038575 0.603197 0.060310
v 0.337693 0.495131 0.131013
v 0.246657 0.603197 0.072784
v 0.169505 0.603197 0.193404
v 0.260541 0.495131 0.251633
v 0.185858 1.003564 0.269836
v 0.185858 1.115534 0.269836
v 0.073782 1.003564 0.178747
v 0.073782 1.115535 0.178747
v 0.288560 1.003564 -0.085515
v 0.288560 1.115535 -0.085515
v 0.380381 1.003564 -0.010888
v 0.384174 1.003564 0.025830
v 0.384174 1.115535 0.025830
v 0.380381 1.115535 -0.010888
v -0.370298 1.301172 0.047177
v -0.353979 1.301172 0.118512
v -0.372387 1.301172 -0.025971
v -0.360165 1.301173 -0.098121
v -0.334102 1.301173 -0.166501
v -0.295199 1.301173 -0.228482
v -0.244953 1.301173 -0.281682
v -0.185292 1.301173 -0.324058
v -0.118511 1.301173 -0.353980
v -0.047176 1.301173 -0.370299
v 0.025972 1.301173 -0.372387
v 0.098122 1.301173 -0.360165
v 0.166502 1.301173 -0.334102
v 0.228483 1.301172 -0.295200
v 0.281683 1.301172 -0.244953
v 0.324059 1.301172 -0.185293
v 0.353981 1.301172 -0.118512
v 0.370300 1.301172 -0.047177
v 0.372388 1.301172 0.025971
v 0.360166 1.301172 0.098122
v 0.334103 1.301172 0.166501
v 0.295201 1.301172 0.228482
v 0.244954 1.301172 0.281682
v 0.185294 1.301172 0.324058
v 0.118513 1.301172 0.353980
v 0.047178 1.301172 0.370299
v -0.025970 1.301172 0.372388
v -0.098121 1.301172 0.360166
v -0.166500 1.301172 0.334103
v -0.228481 1.301172 0.295200
v -0.281681 1.301172 0.244953
v -0.324057 1.301172 0.185293
v -0.370298 1.683339 0.047177
v -0.325618 1.728163 0.041485
v -0.327454 1.728163 -0.022837
v -0.372387 1.683339 -0.025971
v -0.316707 1.728163 -0.086282
v -0.360165 1.683339 -0.098121
v -0.293789 1.728163 -0.146411
v -0.334102 1.683339 -0.166501
v -0.259580 1.728163 -0.200913
v -0.295199 1.683339 -0.228481
v -0.215396 1.728163 -0.247694
v -0.244952 1.683339 -0.281682
v -0.162935 1.728163 -0.284957
v -0.185292 1.683339 -0.324057
v -0.104212 1.728163 -0.311269
v -0.118511 1.683339 -0.353980
v -0.041484 1.728163 -0.325619
v -0.047176 1.683339 -0.370299
v 0.022839 1.728163 -0.327455
v 0.025972 1.683339 -0.372387
v 0.086283 1.728163 -0.316708
v 0.098122 1.683339 -0.360165
v 0.146412 1.728163 -0.293789
v 0.166502 1.683339 -0.334102
v 0.200914 1.728163 -0.259581
v 0.228483 1.683339 -0.295200
v 0.247696 1.728163 -0.215397
v 0.281683 1.683339 -0.244953
v 0.284958 1.728163 -0.162936
v 0.324059 1.683339 -0.185293
v 0.311270 1.728163 -0.104212
v 0.353981 1.683338 -0.118512
v 0.325620 1.728163 -0.041484
v 0.370300 1.683338 -0.047177
v 0.327456 1.728163 0.022838
v 0.372388 1.683338 0.025971
v 0.316709 1.728163 0.086282
v 0.360166 1.683338 0.098122
v 0.293791 1.728163 0.146411
v 0.334103 1.683338 0.166501
v 0.259582 1.728163 0.200913
v 0.295201 1.683338 0.228482
v 0.215398 1.728163 0.247695
v 0.244954 1.683338 0.281682
v 0.162937 1.728163 0.284957
v 0.185294 1.683338 0.324058
v 0.104214 1.728163 0.311269
v 0.118513 1.683338 0.353980
v 0.041486 1.728163 0.325619
v 0.047178 1.683338 0.370299
v -0.022837 1.728163 0.327456
v -0.025970 1.683338 0.372388
v -0.086281 1.728163 0.316708
v -0.098120 1.683338 0.360166
v -0.146410 1.728163 0.293790
v -0.166500 1.683338 0.334103
v -0.200912 1.728163 0.259582
v -0.228481 1.683338 0.295200
v -0.247694 1.728163 0.215398
v -0.281681 1.683339 0.244954
v -0.284956 1.728163 0.162936
v -0.324057 1.683339 0.185293
v -0.311268 1.728163 0.104213
v -0.353979 1.683339 0.118513
vn -0.9976 -0.0000 -0.0696
vn -0.9648 -0.0000 -0.2629
vn -0.8950 -0.0000 -0.4460
vn -0.7908 -0.0000 -0.6121
vn -0.6562 -0.0000 -0.7546
vn -0.4964 -0.0000 -0.8681
vn -0.3175 -0.0000 -0.9483
vn -0.1264 -0.0000 -0.9920
vn 0.0696 -0.0000 -0.9976
vn 0.2629 -0.0000 -0.9648
vn 0.4460 -0.0000 -0.8950
vn 0.6121 -0.0000 -0.7908
vn 0.7546 -0.0000 -0.6562
vn 0.8681 -0.0000 -0.4964
vn 0.9483 -0.0000 -0.3175
vn 0.9920 -0.0000 -0.1264
vn 0.9976 -0.0000 0.0696
vn 0.9648 -0.0000 0.2629
vn 0.8950 -0.0000 0.4460
vn 0.7908 -0.0000 0.6121
vn 0.6562 -0.0000 0.7546
vn 0.4964 -0.0000 0.8681
vn 0.3175 -0.0000 0.9483
vn 0.1264 -0.0000 0.9920
vn -0.0696 -0.0000 0.9976
vn -0.2629 -0.0000 0.9648
vn -0.4460 -0.0000 0.8950
vn -0.6121 -0.0000 0.7908
vn -0.7546 -0.0000 0.6562
vn -0.8681 -0.0000 0.4964
vn -0.9483 -0.0000 0.3175
vn -0.9920 -0.0000 0.1264
vn -0.0000 1.0000 -0.0000
vn -0.6997 -0.7088 0.0891
vn -0.7037 -0.7088 -0.0491
vn -0.6806 -0.7088 -0.1854
vn -0.6313 -0.7088 -0.3146
vn -0.5578 -0.7088 -0.4318
vn -0.4629 -0.7088 -0.5323
vn -0.3501 -0.7088 -0.6124
vn -0.2239 -0.7088 -0.6689
vn -0.0891 -0.7088 -0.6997
vn 0.0491 -0.7088 -0.7037
vn 0.1854 -0.7088 -0.6806
vn 0.3146 -0.7088 -0.6313
vn 0.4318 -0.7088 -0.5578
vn 0.5323 -0.7088 -0.4629
vn 0.6124 -0.7088 -0.3501
vn 0.6689 -0.7088 -0.2239
vn 0.6997 -0.7088 -0.0891
vn 0.7037 -0.7088 0.0491
vn 0.6806 -0.7088 0.1854
vn 0.6313 -0.7088 0.3146
vn 0.5578 -0.7088 0.4318
vn 0.4629 -0.7088 0.5323
vn 0.3501 -0.7088 0.6124
vn 0.2239 -0.7088 0.6689
vn 0.0891 -0.7088 0.6997
vn -0.0491 -0.7088 0.7037
vn -0.1854 -0.7088 0.6806
vn -0.3146 -0.7088 0.6313
vn -0.4318 -0.7088 0.5578
vn -0.5323 -0.7088 0.4629
vn -0.6124 -0.7088 0.3501
vn -0.6689 -0.7088 0.2239
vn -0.0000 -1.0000 -0.0000
vn -0.7037 0.7088 -0.0491
vn -0.6997 0.7088 0.0891
vn -0.6806 0.7088 -0.1854
vn -0.6313 0.7088 -0.3146
vn -0.5578 0.7088 -0.4318
vn -0.4629 0.7088 -0.5323
vn -0.3501 0.7088 -0.6124
vn -0.2239 0.7088 -0.6689
vn -0.0891 0.7088 -0.6997
vn 0.0491 0.7088 -0.7037
vn 0.1854 0.7088 -0.6806
vn 0.3146 0.7088 -0.6313
vn 0.4318 0.7088 -0.5578
vn 0.5323 0.7088 -0.4629
vn 0.6124 0.7088 -0.3501
vn 0.6689 0.7088 -0.2239
vn 0.6997 0.7088 -0.0891
vn 0.7037 0.7088 0.0491
vn 0.6806 0.7088 0.1854
vn 0.6313 0.7088 0.3146
vn 0.5578 0.7088 0.4318
vn 0.4629 0.7088 0.5323
vn 0.3501 0.7088 0.6124
vn 0.2239 0.7088 0.6689
vn 0.0891 0.7088 0.6997
vn -0.0491 0.7088 0.7037
vn -0.1854 0.7088 0.6806
vn -0.3146 0.7088 0.6313
vn -0.4318 0.7088 0.5578
vn -0.5323 0.7088 0.4629
vn -0.6124 0.7088 0.3501
vn -0.6689 0.7088 0.2239
vn -0.7253 0.2600 0.6375
vn 0.1894 0.2600 0.9468
vn 0.9147 0.2600 0.3094
vn 0.7253 0.2600 -0.6375
vn -0.1894 0.2600 -0.9468
vn -0.9147 0.2600 -0.3094
vn 0.7685 -0.2600 -0.5846
vn -0.1220 -0.2600 -0.9579
vn -0.8905 -0.2600 -0.3732
vn -0.7685 -0.2600 0.5846
vn 0.1220 -0.2600 0.9579
vn 0.8905 -0.2600 0.3732
vn -0.7959 -0.0000 0.6054
vn 0.7959 -0.0000 -0.6054
vn -0.9223 -0.0000 -0.3865
vn 0.9223 -0.0000 0.3865
vn -0.2240 -0.7088 -0.6689
vn 0.2240 0.7088 0.6689
vn 0.0892 0.7088 0.6997
vn -0.8430 -0.5271 0.1074
vn -0.8477 -0.5271 -0.0591
vn -0.8199 -0.5271 -0.2234
vn -0.7606 -0.5271 -0.3790
vn -0.8058 -0.5271 0.2698
vn -0.7377 -0.5271 0.4218
vn -0.6413 -0.5271 0.5576
vn -0.5201 -0.5271 0.6720
vn -0.3790 -0.5271 0.7606
vn -0.2234 -0.5271 0.8199
vn -0.0591 -0.5271 0.8477
vn 0.1074 -0.5271 0.8430
vn 0.2698 -0.5271 0.8058
vn 0.4218 -0.5271 0.7377
vn 0.5576 -0.5271 0.6413
vn 0.6720 -0.5271 0.5201
vn 0.7606 -0.5271 0.3790
vn 0.8199 -0.5271 0.2234
vn 0.8477 -0.5271 0.0591
vn 0.8430 -0.5271 -0.1074
vn 0.8058 -0.5271 -0.2698
vn 0.7377 -0.5271 -0.4218
vn 0.6413 -0.5271 -0.5576
vn 0.5201 -0.5271 -0.6720
vn 0.3790 -0.5271 -0.7606
vn 0.2234 -0.5271 -0.8199
vn 0.0591 -0.5271 -0.8477
vn -0.1074 -0.5271 -0.8430
vn -0.2698 -0.5271 -0.8058
vn -0.4218 -0.5271 -0.7377
vn -0.5576 -0.5271 -0.6413
vn -0.6720 -0.5271 -0.5201
vn 0.4629 0.8844 -0.0590
vn 0.4655 0.8844 0.0325
vn 0.4502 0.8844 0.1227
vn 0.4177 0.8844 0.2081
vn 0.3690 0.8844 0.2856
vn 0.3062 0.8844 0.3521
vn 0.2316 0.8844 0.4051
vn 0.1482 0.8844 0.4425
vn 0.0590 0.8844 0.4629
vn -0.0325 0.8844 0.4655
vn -0.1227 0.8844 0.4502
vn -0.2081 0.8844 0.4177
vn -0.2856 0.8844 0.3690
vn -0.3521 0.8844 0.3062
vn -0.4051 0.8844 0.2316
vn -0.4425 0.8844 0.1482
vn -0.4629 0.8844 0.0590
vn -0.4655 0.8844 -0.0325
vn -0.4502 0.8844 -0.1227
vn -0.4177 0.8844 -0.2081
vn -0.3690 0.8844 -0.2856
vn -0.3062 0.8844 -0.3521
vn -0.2316 0.8844 -0.4051
vn -0.1481 0.8844 -0.4425
vn -0.0590 0.8844 -0.4629
vn 0.0325 0.8844 -0.4655
vn 0.1227 0.8844 -0.4502
vn 0.2081 0.8844 -0.4177
vn 0.2856 0.8844 -0.3690
vn 0.3521 0.8844 -0.3062
vn 0.4051 0.8844 -0.2316
vn 0.4425 0.8844 -0.1482
vn -0.6240 -0.0055 0.7814
vn -0.6873 -0.1089 0.7181
vn 0.2289 0.2669 0.9362
vn 0.3804 -0.0125 0.9247
vn -0.9879 -0.0132 -0.1543
vn -0.9182 -0.3695 -0.1429
vn -0.3790 -0.0106 -0.9253
vn -0.3692 -0.3168 -0.8737
vn 0.6252 -0.0059 -0.7804
vn 0.5164 0.0119 -0.8563
vn 0.9877 -0.0155 0.1553
vn 0.9374 0.3438 0.0561
vn -0.5702 -0.2480 0.7832
vn -0.1567 0.6510 0.7427
vn -0.4939 -0.8642 0.0955
vn -0.0040 -0.7400 -0.6726
vn 0.4872 0.0335 -0.8726
vn 0.4536 0.8604 -0.2320
vn -0.5719 -0.1514 0.8062
vn -0.3811 0.8134 0.4395
vn -0.2136 -0.9415 0.2608
vn 0.3437 -0.7758 -0.5292
vn 0.5515 0.1457 -0.8214
vn 0.1703 0.9214 -0.3494
vn -0.7104 -0.1482 0.6880
vn -0.4304 0.8006 0.4169
vn -0.2463 -0.9394 0.2386
vn 0.4581 -0.7703 -0.4437
vn 0.7113 0.1393 -0.6889
vn 0.2850 0.9179 -0.2761
vn -0.8194 -0.1557 0.5516
vn -0.4833 0.8071 0.3391
vn -0.2357 -0.9432 0.2343
vn 0.5492 -0.7807 -0.2980
vn 0.8369 0.1403 -0.5291
vn 0.3412 0.9202 -0.1919
vn -0.8823 0.0009 0.4707
vn -0.3418 0.7572 0.5567
vn -0.5404 -0.8407 -0.0335
vn 0.5077 -0.6822 -0.5261
vn 0.9101 0.2173 -0.3527
vn 0.4896 0.8540 0.1758
vn -0.8894 0.0140 0.4570
vn -0.1484 0.3379 0.9294
vn -0.7925 -0.2890 -0.5370
vn 0.2998 -0.2411 -0.9230
vn 0.9622 0.1044 -0.2516
vn 0.7067 0.3793 0.5972
vn 0.5913 0.8042 -0.0595
vn 0.3472 0.8042 0.4823
vn -0.5825 -0.8107 0.0587
vn -0.2404 -0.8107 0.5338
vn -0.1031 0.8013 0.5893
vn -0.5619 0.8013 0.2053
vn 0.1031 -0.8013 -0.5893
vn -0.4588 -0.8013 -0.3839
vn -0.2441 0.8042 0.5419
vn 0.4588 -0.8013 0.3839
vn 0.5619 -0.8013 -0.2053
vn -0.7980 -0.0080 0.6026
vn -0.8433 -0.1103 0.5261
vn -0.0105 0.2636 0.9646
vn 0.1419 -0.0195 0.9897
vn -0.9187 -0.0190 -0.3946
vn -0.8536 -0.3718 -0.3648
vn -0.1393 -0.0152 -0.9901
vn -0.1406 -0.3189 -0.9373
vn 0.7994 -0.0089 -0.6007
vn 0.7121 0.0106 -0.7020
vn 0.9179 -0.0241 0.3961
vn 0.8960 0.3393 0.2864
vn -0.7462 -0.2480 0.6178
vn -0.3356 0.6510 0.6809
vn -0.5022 -0.8642 -0.0297
vn 0.1625 -0.7400 -0.6527
vn 0.6880 0.0335 -0.7250
vn 0.4969 0.8604 -0.1126
vn -0.7536 -0.1514 0.6397
vn -0.4780 0.8134 0.3315
vn -0.2715 -0.9415 0.1999
vn 0.4640 -0.7758 -0.4277
vn 0.7375 0.1457 -0.6594
vn 0.2515 0.9214 -0.2964
vn -0.8585 -0.1482 0.4909
vn -0.5201 0.8006 0.2974
vn -0.2977 -0.9394 0.1702
vn 0.5536 -0.7703 -0.3165
vn 0.8596 0.1393 -0.4915
vn 0.3445 0.9179 -0.1970
vn -0.9304 -0.1557 0.3317
vn -0.5522 0.8071 0.2090
vn -0.2863 -0.9432 0.1687
vn 0.6059 -0.7807 -0.1528
vn 0.9418 0.1403 -0.3056
vn 0.3781 0.9202 -0.1015
vn -0.9713 0.0009 0.2378
vn -0.4689 0.7572 0.4548
vn -0.5154 -0.8407 -0.1661
vn 0.6221 -0.6822 -0.3842
vn 0.9691 0.2173 -0.1166
vn 0.4309 0.8540 0.2915
vn -0.9749 0.0042 0.2226
vn -0.3711 0.3269 0.8692
vn -0.6214 -0.3324 -0.7095
vn 0.5082 -0.2746 -0.8163
vn 0.9953 0.0963 -0.0033
vn 0.5372 0.3672 0.7593
vn -0.4588 0.8013 -0.3839
vn 0.2404 -0.8107 -0.5338
vn -0.3420 -0.8107 -0.4751
vn 0.1031 0.8013 -0.5893
vn 0.3420 -0.8107 0.4751
vn 0.5825 -0.8107 -0.0587
vn -0.5913 0.8043 0.0595
vn -0.5913 0.8042 0.0595
vn 0.5619 0.8013 -0.2053
vn -0.1546 0.0405 0.9872
vn 0.7576 0.0480 0.6509
vn 0.9399 0.0237 -0.3407
vn 0.1378 0.0935 -0.9860
vn -0.7455 0.1069 -0.6578
vn -0.9424 0.0314 0.3331
vn -0.3989 0.0157 0.9169
vn 0.5764 0.0186 0.8170
vn 0.9952 0.0079 -0.0978
vn 0.3966 0.0201 -0.9178
vn -0.5748 0.0236 -0.8180
vn -0.9954 0.0086 0.0954
vn -0.9392 -0.0000 0.3432
vn -0.1724 -0.0000 0.9850
vn -0.7669 -0.0000 -0.6418
vn 0.1724 -0.0000 -0.9850
vn 0.9392 -0.0000 -0.3432
vn 0.7669 -0.0000 0.6418
vn -0.9950 -0.0000 0.1002
vn -0.4107 -0.0000 0.9118
vn -0.5842 -0.0000 -0.8116
vn 0.4107 -0.0000 -0.9118
vn 0.9950 -0.0000 -0.1002
vn 0.5842 -0.0000 0.8116
vn 0.2441 0.8043 -0.5418
vn -0.5619 -0.8013 0.2053
vn -0.1031 -0.8013 0.5893
vn 0.4588 0.8013 0.3839
vn -0.3472 0.8043 -0.4823
vn -0.8440 -0.5349 -0.0400
vn -0.0006 -0.9995 0.0330
vn 0.7892 -0.5240 0.3203
vn 0.7357 0.4160 0.5345
vn -0.1077 0.8805 0.4616
vn -0.8975 0.4051 0.1743
vn -0.2082 -0.2286 0.9510
vn -0.3810 0.7071 0.5957
vn -0.5388 -0.0000 0.8424
vn -0.8424 -0.0000 -0.5388
vn 0.3810 0.7071 -0.5957
vn 0.5388 -0.0000 -0.8424
vn 0.8424 -0.0000 0.5388
vn 0.5957 0.7071 0.3810
vn -0.5957 0.7071 -0.3810
vn -0.6307 -0.0000 0.7760
vn -0.7760 -0.0000 -0.6307
vn 0.7760 -0.0000 0.6307
vn 0.6307 -0.0000 -0.7760
vn 0.9947 -0.0000 -0.1028
vt 0.968750 0.522079
vt 0.968750 0.974446
vt 0.937500 0.974446
vt 0.937500 0.522079
vt 0.906250 0.522079
vt 0.906250 0.974446
vt 0.875000 0.974446
vt 0.875000 0.522079
vt 0.875000 0.974446
vt 0.843750 0.974446
vt 0.843750 0.522079
vt 0.843750 0.522079
vt 0.812500 0.974446
vt 0.812500 0.522079
vt 0.812500 0.974446
vt 0.781250 0.974446
vt 0.781250 0.522079
vt 0.750000 0.974446
vt 0.750000 0.522079
vt 0.750000 0.974446
vt 0.718750 0.974446
vt 0.718750 0.522079
vt 0.718750 0.974446
vt 0.687500 0.974446
vt 0.687500 0.522079
vt 0.656250 0.974446
vt 0.656250 0.522079
vt 0.656250 0.974446
vt 0.625000 0.974446
vt 0.625000 0.522079
vt 0.625000 0.974446
vt 0.593750 0.974446
vt 0.593750 0.522079
vt 0.562500 0.974446
vt 0.562500 0.522079
vt 0.562500 0.974446
vt 0.531250 0.974446
vt 0.531250 0.522079
vt 0.500000 0.974446
vt 0.500000 0.522079
vt 0.468750 0.974446
vt 0.468750 0.522079
vt 0.468750 0.974446
vt 0.437500 0.974446
vt 0.437500 0.522079
vt 0.406250 0.974446
vt 0.406250 0.522079
vt 0.406250 0.974446
vt 0.375000 0.974446
vt 0.375000 0.522079
vt 0.375000 0.974446
vt 0.343750 0.974446
vt 0.343750 0.522079
vt 0.312500 0.974446
vt 0.312500 0.522079
vt 0.312500 0.974446
vt 0.281250 0.974446
vt 0.281250 0.522079
vt 0.250000 0.974446
vt 0.250000 0.522079
vt 0.218750 0.974446
vt 0.218750 0.522079
vt 0.218750 0.974446
vt 0.187500 0.974446
vt 0.187500 0.522079
vt 0.187500 0.974446
vt 0.156250 0.974446
vt 0.156250 0.522079
vt 0.156250 0.974446
vt 0.125000 0.974446
vt 0.125000 0.522079
vt 0.125000 0.974446
vt 0.093750 0.974446
vt 0.093750 0.522079
vt 0.093750 0.974446
vt 0.062500 0.974446
vt 0.062500 0.522079
vt 0.062500 0.974446
vt 0.031250 0.974446
vt 0.031250 0.522079
vt 0.000000 0.974446
vt 0.000000 0.522079
vt 0.906250 0.974446
vt 0.290606 0.454143
vt 0.250000 0.458142
vt 0.209393 0.454143
vt 0.170347 0.442298
vt 0.134362 0.423064
vt 0.102821 0.397179
vt 0.076936 0.365638
vt 0.057702 0.329652
vt 0.045857 0.290606
vt 0.041858 0.250000
vt 0.045857 0.209393
vt 0.057702 0.170347
vt 0.076936 0.134362
vt 0.102821 0.102821
vt 0.134362 0.076936
vt 0.170347 0.057702
vt 0.209393 0.045857
vt 0.250000 0.041858
vt 0.290607 0.045857
vt 0.329653 0.057702
vt 0.365638 0.076936
vt 0.397179 0.102821
vt 0.423064 0.134362
vt 0.442298 0.170347
vt 0.454143 0.209393
vt 0.458142 0.250000
vt 0.454143 0.290607
vt 0.442298 0.329653
vt 0.423064 0.365638
vt 0.397179 0.397179
vt 0.365638 0.423064
vt 0.329653 0.442298
vt 0.750000 0.490000
vt 0.796822 0.485388
vt 0.791451 0.458392
vt 0.750000 0.462475
vt 0.841844 0.471731
vt 0.831310 0.446301
vt 0.883337 0.449553
vt 0.868045 0.426666
vt 0.919706 0.419706
vt 0.900242 0.400242
vt 0.949553 0.383337
vt 0.926666 0.368045
vt 0.971731 0.341844
vt 0.946301 0.331311
vt 0.985388 0.296822
vt 0.958392 0.291452
vt 0.990000 0.250000
vt 0.962475 0.250000
vt 0.985388 0.203178
vt 0.958392 0.208548
vt 0.971731 0.158156
vt 0.946301 0.168689
vt 0.949553 0.116663
vt 0.926666 0.131955
vt 0.919706 0.080294
vt 0.900242 0.099758
vt 0.883337 0.050447
vt 0.868045 0.073334
vt 0.841844 0.028269
vt 0.831310 0.053699
vt 0.796822 0.014612
vt 0.791452 0.041608
vt 0.750000 0.010000
vt 0.750000 0.037525
vt 0.703178 0.014612
vt 0.708548 0.041608
vt 0.658156 0.028269
vt 0.668689 0.053699
vt 0.616663 0.050447
vt 0.631955 0.073334
vt 0.580294 0.080294
vt 0.599758 0.099758
vt 0.550447 0.116663
vt 0.573334 0.131955
vt 0.528269 0.158156
vt 0.553699 0.168689
vt 0.514612 0.203178
vt 0.541608 0.208548
vt 0.510000 0.250000
vt 0.537525 0.250000
vt 0.514612 0.296822
vt 0.541608 0.291452
vt 0.528269 0.341844
vt 0.553699 0.331311
vt 0.550447 0.383337
vt 0.573334 0.368045
vt 0.580294 0.419706
vt 0.599758 0.400242
vt 0.616663 0.449553
vt 0.631955 0.426666
vt 0.658156 0.471731
vt 0.668689 0.446301
vt 0.703178 0.485388
vt 0.708548 0.458392
vt 0.296822 0.485388
vt 0.250000 0.490000
vt 0.341844 0.471731
vt 0.383337 0.449553
vt 0.419706 0.419706
vt 0.449553 0.383337
vt 0.471731 0.341844
vt 0.485388 0.296822
vt 0.490000 0.250000
vt 0.485388 0.203178
vt 0.471731 0.158156
vt 0.449553 0.116663
vt 0.419706 0.080294
vt 0.383337 0.050447
vt 0.341844 0.028269
vt 0.296822 0.014612
vt 0.250000 0.010000
vt 0.203178 0.014612
vt 0.158156 0.028269
vt 0.116663 0.050447
vt 0.080294 0.080294
vt 0.050447 0.116663
vt 0.028269 0.158156
vt 0.014612 0.203178
vt 0.010000 0.250000
vt 0.014612 0.296822
vt 0.028269 0.341844
vt 0.050447 0.383337
vt 0.080294 0.419706
vt 0.116663 0.449553
vt 0.158156 0.471731
vt 0.203178 0.485388
vt 1.000000 0.522079
vt 1.000000 0.974446
vt 0.968750 0.974446
vt 1.000000 0.500000
vt 1.000000 1.000000
vt 0.833333 1.000000
vt 0.833333 0.500000
vt 0.666667 1.000000
vt 0.666667 0.500000
vt 0.500000 1.000000
vt 0.500000 0.500000
vt 0.333333 1.000000
vt 0.333333 0.500000
vt 0.166667 1.000000
vt 0.166667 0.500000
vt -0.000000 1.000000
vt -0.000000 0.500000
vt 0.957846 0.370000
vt 0.957846 0.130000
vt 0.542154 0.130000
vt 0.542154 0.370000
vt 0.968750 0.780036
vt 0.937500 0.780036
vt 0.906250 0.780036
vt 0.875000 0.780036
vt 0.843750 0.780036
vt 0.812500 0.780036
vt 0.781250 0.780036
vt 0.750000 0.780036
vt 0.718750 0.780036
vt 0.687500 0.780036
vt 0.656250 0.780036
vt 0.625000 0.780036
vt 0.593750 0.780036
vt 0.562500 0.780036
vt 0.531250 0.780036
vt 0.500000 0.780036
vt 0.468750 0.780036
vt 0.437500 0.780036
vt 0.406250 0.780036
vt 0.375000 0.780036
vt 0.343750 0.780036
vt 0.312500 0.780036
vt 0.281250 0.780036
vt 0.250000 0.780036
vt 0.218750 0.780036
vt 0.187500 0.780036
vt 0.156250 0.780036
vt 0.125000 0.780036
vt 0.093750 0.780036
vt 0.062500 0.780036
vt 0.031250 0.780036
vt 0.000000 0.780036
vt 0.275304 0.377214
vt 0.250000 0.379707
vt 0.224695 0.377214
vt 0.200363 0.369833
vt 0.177939 0.357847
vt 0.158284 0.341716
vt 0.142153 0.322061
vt 0.130167 0.299637
vt 0.122786 0.275304
vt 0.120293 0.250000
vt 0.122786 0.224695
vt 0.130167 0.200363
vt 0.142153 0.177939
vt 0.158284 0.158284
vt 0.177939 0.142153
vt 0.200363 0.130167
vt 0.224695 0.122786
vt 0.250000 0.120293
vt 0.275304 0.122786
vt 0.299637 0.130167
vt 0.322061 0.142153
vt 0.341716 0.158284
vt 0.357847 0.177939
vt 0.369833 0.200363
vt 0.377214 0.224695
vt 0.379707 0.250000
vt 0.377214 0.275304
vt 0.369833 0.299637
vt 0.357847 0.322061
vt 0.341716 0.341716
vt 0.322061 0.357847
vt 0.299637 0.369833
vt 1.000000 0.780036
vt 1.000000 0.656433
vt 0.968750 0.656433
vt 0.937500 0.656433
vt 0.906250 0.656433
vt 0.031250 0.656433
vt 0.000000 0.656433
vt 0.062500 0.656433
vt 0.093750 0.656433
vt 0.125000 0.656433
vt 0.156250 0.656433
vt 0.187500 0.656433
vt 0.218750 0.656433
vt 0.250000 0.656433
vt 0.281250 0.656433
vt 0.312500 0.656433
vt 0.343750 0.656433
vt 0.375000 0.656433
vt 0.406250 0.656433
vt 0.437500 0.656433
vt 0.468750 0.656433
vt 0.500000 0.656433
vt 0.531250 0.656433
vt 0.562500 0.656433
vt 0.593750 0.656433
vt 0.625000 0.656433
vt 0.656250 0.656433
vt 0.687500 0.656433
vt 0.718750 0.656433
vt 0.750000 0.656433
vt 0.781250 0.656433
vt 0.812500 0.656433
vt 0.843750 0.656433
vt 0.875000 0.656433
vt 1.000000 0.747475
vt 0.968750 0.747475
vt 0.937500 0.747475
vt 0.906250 0.747476
vt 0.031250 0.747475
vt 0.000000 0.747475
vt 0.062500 0.747475
vt 0.093750 0.747476
vt 0.125000 0.747475
vt 0.156250 0.747476
vt 0.187500 0.747475
vt 0.218750 0.747476
vt 0.250000 0.747475
vt 0.281250 0.747475
vt 0.312500 0.747475
vt 0.343750 0.747476
vt 0.375000 0.747475
vt 0.406250 0.747476
vt 0.437500 0.747475
vt 0.468750 0.747476
vt 0.500000 0.747475
vt 0.531250 0.747475
vt 0.562500 0.747475
vt 0.593750 0.747476
vt 0.625000 0.747475
vt 0.656250 0.747476
vt 0.687500 0.747475
vt 0.718750 0.747476
vt 0.750000 0.747475
vt 0.781250 0.747475
vt 0.812500 0.747475
vt 0.843750 0.747476
vt 0.875000 0.747475
vt 0.250000 0.427408
vt 0.284611 0.423999
vt 0.317891 0.413904
vt 0.348563 0.397510
vt 0.375447 0.375447
vt 0.397510 0.348563
vt 0.413904 0.317891
vt 0.423999 0.284611
vt 0.427408 0.250000
vt 0.423999 0.215389
vt 0.413904 0.182109
vt 0.397510 0.151437
vt 0.375447 0.124553
vt 0.348563 0.102490
vt 0.317891 0.086096
vt 0.284611 0.076001
vt 0.250000 0.072592
vt 0.215389 0.076001
vt 0.182109 0.086096
vt 0.151437 0.102490
vt 0.124553 0.124553
vt 0.102490 0.151437
vt 0.086096 0.182109
vt 0.076001 0.215389
vt 0.072592 0.250000
vt 0.076001 0.284611
vt 0.086096 0.317891
vt 0.102490 0.348563
vt 0.124553 0.375447
vt 0.151437 0.397510
vt 0.182109 0.413904
vt 0.215389 0.423999
vt 0.000000 1.000000
vt 0.125000 1.000000
vt 0.125000 0.833333
vt 0.000000 0.833333
vt 0.000000 0.166667
vt 0.125000 0.166667
vt 0.125000 0.000000
vt 0.000000 0.000000
vt 0.000000 0.333333
vt 0.125000 0.333333
vt 0.000000 0.500000
vt 0.125000 0.500000
vt 0.000000 0.666667
vt 0.125000 0.666667
vt 0.250000 1.000000
vt 0.250000 0.833333
vt 0.250000 0.166667
vt 0.250000 0.000000
vt 0.250000 0.333333
vt 0.250000 0.500000
vt 0.250000 0.666667
vt 0.375000 1.000000
vt 0.375000 0.833333
vt 0.375000 0.166667
vt 0.375000 0.000000
vt 0.375000 0.333333
vt 0.375000 0.500000
vt 0.375000 0.666667
vt 0.500000 1.000000
vt 0.500000 0.833333
vt 0.500000 0.166667
vt 0.500000 0.000000
vt 0.500000 0.333333
vt 0.500000 0.500000
vt 0.500000 0.666667
vt 0.625000 1.000000
vt 0.625000 0.833333
vt 0.625000 0.166667
vt 0.625000 0.000000
vt 0.625000 0.333333
vt 0.625000 0.500000
vt 0.625000 0.666667
vt 0.750000 1.000000
vt 0.750000 0.833333
vt 0.750000 0.166667
vt 0.750000 0.000000
vt 0.750000 0.333333
vt 0.750000 0.500000
vt 0.750000 0.666667
vt 0.875000 1.000000
vt 0.875000 0.833333
vt 0.875000 0.166667
vt 0.875000 0.000000
vt 0.875000 0.333333
vt 0.875000 0.500000
vt 0.875000 0.666667
vt 1.000000 0.500000
vt 1.000000 0.666667
vt 1.000000 0.833333
vt 1.000000 0.833333
vt 1.000000 0.333333
vt 1.000000 0.166667
vt 1.000000 0.666667
vt 1.000000 0.000000
vt 1.000000 0.166667
vt 1.000000 0.333333
vt 1.000000 0.166667
vt 0.625000 0.625000
vt 0.875000 0.625000
vt 0.875000 0.711956
vt 0.625000 0.711956
vt 0.625000 0.750000
vt 0.580401 0.750000
vt 0.580401 1.000000
vt 0.375000 0.750000
vt 0.125000 0.625000
vt 0.375000 0.625000
vt 0.125000 0.750000
vt 0.625000 0.625000
vt 0.625000 0.711956
vt 0.580401 0.000000
vt 0.625000 0.038044
vt 0.625000 0.125000
vt 0.375000 0.125000
vt 0.625000 0.250000
vt 0.375000 0.250000
vt 0.375000 0.769162
vt 0.625000 0.769162
vt 0.875000 0.750000
vt 0.644162 0.750000
vt 0.625000 0.704818
vt 0.375000 0.704818
vt 0.355838 0.750000
vt 0.937500 0.954037
vt 0.906250 0.954037
vt 0.875000 0.954037
vt 0.843750 0.954037
vt 0.812500 0.954037
vt 0.812500 0.954037
vt 0.781250 0.954037
vt 0.781250 0.954037
vt 0.750000 0.954037
vt 0.718750 0.954037
vt 0.718750 0.954037
vt 0.687500 0.954037
vt 0.656250 0.954037
vt 0.656250 0.954037
vt 0.625000 0.954037
vt 0.625000 0.954037
vt 0.593750 0.954037
vt 0.562500 0.954037
vt 0.562500 0.954037
vt 0.531250 0.954037
vt 0.500000 0.954037
vt 0.468750 0.954037
vt 0.468750 0.954037
vt 0.437500 0.954037
vt 0.406250 0.954037
vt 0.406250 0.954037
vt 0.375000 0.954037
vt 0.375000 0.954037
vt 0.343750 0.954037
vt 0.312500 0.954037
vt 0.312500 0.954037
vt 0.281250 0.954037
vt 0.250000 0.954037
vt 0.218750 0.954037
vt 0.218750 0.954037
vt 0.187500 0.954037
vt 0.187500 0.954037
vt 0.156250 0.954037
vt 0.156250 0.954037
vt 0.125000 0.954037
vt 0.125000 0.954037
vt 0.093750 0.954037
vt 0.062500 0.954037
vt 0.062500 0.954037
vt 0.031250 0.954037
vt 1.000000 0.954037
vt 0.968750 0.954037
vt 0.906250 0.954037
vt 0.875000 0.954037
vt 0.968750 0.954037
vt 0.000000 0.954037
vt 0.000000 0.974446
vt 0.266770 0.974446
vt 0.701980 0.974446
vt 0.837466 0.974446
vt 0.840517 0.974446
vt 0.824054 0.974446
vt 0.801907 0.974446
vt 0.777272 0.974446
vt 0.751283 0.974446
vt 0.724457 0.974446
vt 0.697071 0.974446
vt 0.669291 0.974446
vt 0.641225 0.974446
vt 0.612949 0.974446
vt 0.584520 0.974446
vt 0.555980 0.974446
vt 0.527367 0.974446
vt 0.498710 0.974446
vt 0.470040 0.974446
vt 0.441384 0.974446
vt 0.412770 0.974446
vt 0.384230 0.974446
vt 0.355801 0.974446
vt 0.327525 0.974446
vt 0.299459 0.974446
vt 0.271679 0.974446
vt 0.244293 0.974446
vt 0.217467 0.974446
vt 0.191478 0.974446
vt 0.166843 0.974446
vt 0.144696 0.974446
vt 0.128233 0.974446
vt 0.131284 0.974446
s 0
usemtl Material.006
f 129/215/99 130/216/99 132/217/99 131/218/99
f 131/218/100 132/217/100 134/219/100 133/220/100
f 133/220/101 134/219/101 136/221/101 135/222/101
f 135/222/102 136/221/102 138/223/102 137/224/102
f 137/224/103 138/223/103 140/225/103 139/226/103
f 139/226/104 140/225/104 130/227/104 129/228/104
f 129/116/33 131/229/33 133/230/33 135/148/33 137/231/33 139/232/33
f 141/215/105 143/218/105 144/217/105 142/216/105
f 143/218/106 145/220/106 146/219/106 144/217/106
f 145/220/107 147/222/107 148/221/107 146/219/107
f 147/222/108 149/224/108 150/223/108 148/221/108
f 149/224/109 151/226/109 152/225/109 150/223/109
f 151/226/110 141/228/110 142/227/110 152/225/110
f 141/116/66 151/232/66 149/231/66 147/148/66 145/230/66 143/229/66
f 148/221/111 150/223/111 157/223/111 156/221/111
f 144/217/8 146/219/8 155/219/8 153/217/8
f 150/223/24 152/225/24 158/225/24 157/223/24
f 142/216/112 144/217/112 153/217/112 154/216/112
f 146/219/113 148/221/113 156/221/113 155/219/113
f 152/225/114 142/227/114 154/227/114 158/225/114
f 154/216/33 153/217/33 155/219/33 156/221/33 157/223/33 158/225/33
f 591/215/327 592/216/327 594/217/327 593/218/327
f 593/218/328 594/217/328 596/219/328 595/220/328
f 595/220/329 596/219/329 598/221/329 597/222/329
f 597/222/330 598/221/330 600/223/330 599/224/330
f 599/224/331 600/223/331 602/225/331 601/226/331
f 601/226/332 602/225/332 592/227/332 591/228/332
f 591/116/333 593/229/333 595/230/333 597/148/333 599/231/333 601/232/333
s 1
usemtl Material.003
f 29/1/1 68/2/1 70/3/2 27/4/2
f 25/5/3 72/6/3 74/7/4 23/8/4
f 23/8/4 74/9/4 76/10/5 21/11/5
f 21/12/5 76/10/5 78/13/6 19/14/6
f 19/14/6 78/15/6 80/16/7 17/17/7
f 17/17/7 80/16/7 82/18/8 15/19/8
f 15/19/8 82/20/8 84/21/9 13/22/9
f 13/22/9 84/23/9 86/24/10 11/25/10
f 11/25/10 86/24/10 88/26/11 9/27/11
f 9/27/11 88/28/11 90/29/12 7/30/12
f 7/30/12 90/31/12 92/32/13 5/33/13
f 5/33/13 92/32/13 94/34/14 3/35/14
f 3/35/14 94/36/14 96/37/15 1/38/15
f 1/38/15 96/37/15 98/39/16 34/40/16
f 34/40/16 98/39/16 100/41/17 36/42/17
f 36/42/17 100/43/17 102/44/18 38/45/18
f 38/45/18 102/44/18 104/46/19 40/47/19
f 40/47/19 104/48/19 106/49/20 42/50/20
f 42/50/20 106/51/20 108/52/21 44/53/21
f 44/53/21 108/52/21 110/54/22 46/55/22
f 46/55/22 110/56/22 112/57/23 48/58/23
f 48/58/23 112/57/23 114/59/24 50/60/24
f 50/60/24 114/59/24 116/61/25 52/62/25
f 52/62/25 116/63/25 118/64/26 54/65/26
f 54/65/26 118/66/26 120/67/27 56/68/27
f 56/68/27 120/69/27 122/70/28 58/71/28
f 58/71/28 122/72/28 124/73/29 60/74/29
f 60/74/29 124/75/29 126/76/30 62/77/30
f 62/77/30 126/78/30 128/79/31 64/80/31
f 64/80/31 128/79/31 65/81/32 31/82/32
f 27/4/2 70/3/2 72/83/3 25/5/3
f 67/84/33 66/85/33 127/86/33 125/87/33 123/88/33 121/89/33 119/90/33 117/91/33 115/92/33 113/93/33 111/94/33 109/95/33 107/96/33 105/97/33 103/98/33 101/99/33 99/100/33 97/101/33 95/102/33 93/103/33 91/104/33 89/105/33 87/106/33 85/107/33 83/108/33 81/109/33 79/110/33 77/111/33 75/112/33 73/113/33 71/114/33 69/115/33
f 31/116/34 29/117/35 30/118/35 32/119/34
f 29/117/35 27/120/36 28/121/36 30/118/35
f 27/120/36 25/122/37 26/123/37 28/121/36
f 25/122/37 23/124/38 24/125/38 26/123/37
f 23/124/38 21/126/39 22/127/39 24/125/38
f 21/126/39 19/128/40 20/129/40 22/127/39
f 19/128/40 17/130/41 18/131/41 20/129/40
f 17/130/41 15/132/42 16/133/42 18/131/41
f 15/132/42 13/134/43 14/135/43 16/133/42
f 13/134/43 11/136/44 12/137/44 14/135/43
f 11/136/44 9/138/45 10/139/45 12/137/44
f 9/138/45 7/140/46 8/141/46 10/139/45
f 7/140/46 5/142/47 6/143/47 8/141/46
f 5/142/47 3/144/48 4/145/48 6/143/47
f 3/144/48 1/146/49 2/147/49 4/145/48
f 1/146/49 34/148/50 33/149/50 2/147/49
f 34/148/50 36/150/51 35/151/51 33/149/50
f 36/150/51 38/152/52 37/153/52 35/151/51
f 38/152/52 40/154/53 39/155/53 37/153/52
f 40/154/53 42/156/54 41/157/54 39/155/53
f 42/156/54 44/158/55 43/159/55 41/157/54
f 44/158/55 46/160/56 45/161/56 43/159/55
f 46/160/56 48/162/57 47/163/57 45/161/56
f 48/162/57 50/164/58 49/165/58 47/163/57
f 50/164/58 52/166/59 51/167/59 49/165/58
f 52/166/59 54/168/60 53/169/60 51/167/59
f 54/168/60 56/170/61 55/171/61 53/169/60
f 56/170/61 58/172/62 57/173/62 55/171/61
f 58/172/62 60/174/63 59/175/63 57/173/62
f 60/174/63 62/176/64 61/177/64 59/175/63
f 62/176/64 64/178/65 63/179/65 61/177/64
f 64/178/65 31/116/34 32/119/34 63/179/65
f 32/119/66 30/118/66 28/121/66 26/123/66 24/125/66 22/127/66 20/129/66 18/131/66 16/133/66 14/135/66 12/137/66 10/139/66 8/141/66 6/143/66 4/145/66 2/147/66 33/149/66 35/151/66 37/153/66 39/155/66 41/157/66 43/159/66 45/161/66 47/163/66 49/165/66 51/167/66 53/169/66 55/171/66 57/173/66 59/175/66 61/177/66 63/179/66
f 68/180/67 65/181/68 66/85/68 67/84/67
f 70/182/69 68/180/67 67/84/67 69/115/69
f 72/183/70 70/182/69 69/115/69 71/114/70
f 74/184/71 72/183/70 71/114/70 73/113/71
f 76/185/72 74/184/71 73/113/71 75/112/72
f 78/186/73 76/185/72 75/112/72 77/111/73
f 80/187/74 78/186/73 77/111/73 79/110/74
f 82/188/75 80/187/74 79/110/74 81/109/75
f 84/189/76 82/188/75 81/109/75 83/108/76
f 86/190/77 84/189/76 83/108/76 85/107/77
f 88/191/78 86/190/77 85/107/77 87/106/78
f 90/192/79 88/191/78 87/106/78 89/105/79
f 92/193/80 90/192/79 89/105/79 91/104/80
f 94/194/81 92/193/80 91/104/80 93/103/81
f 96/195/82 94/194/81 93/103/81 95/102/82
f 98/196/83 96/195/82 95/102/82 97/101/83
f 100/197/84 98/196/83 97/101/83 99/100/84
f 102/198/85 100/197/84 99/100/84 101/99/85
f 104/199/86 102/198/85 101/99/85 103/98/86
f 106/200/87 104/199/86 103/98/86 105/97/87
f 108/201/88 106/200/87 105/97/87 107/96/88
f 110/202/89 108/201/88 107/96/88 109/95/89
f 112/203/90 110/202/89 109/95/89 111/94/90
f 114/204/91 112/203/90 111/94/90 113/93/91
f 116/205/92 114/204/91 113/93/91 115/92/92
f 118/206/93 116/205/92 115/92/92 117/91/93
f 120/207/94 118/206/93 117/91/93 119/90/94
f 122/208/95 120/207/94 119/90/94 121/89/95
f 124/209/96 122/208/95 121/89/95 123/88/96
f 126/210/97 124/209/96 123/88/96 125/87/97
f 128/211/98 126/210/97 125/87/97 127/86/98
f 65/181/68 128/211/98 127/86/98 66/85/68
f 31/212/32 65/213/32 68/214/1 29/1/1
f 225/265/33 224/266/33 285/267/33 283/268/33 281/269/33 279/270/33 277/271/33 275/272/33 273/273/33 271/274/33 269/275/33 267/276/33 265/277/33 263/278/33 261/279/33 259/280/33 257/281/33 255/282/33 253/283/33 251/284/33 249/285/33 247/286/33 245/287/33 243/288/33 241/289/33 239/290/33 237/291/33 235/292/33 233/293/33 231/294/33 229/295/33 227/296/33
f 159/119/66 161/118/66 163/121/66 165/123/66 167/125/66 169/127/66 171/129/66 173/131/66 175/133/66 177/135/66 179/137/66 181/139/66 183/141/66 185/143/66 187/145/66 189/147/66 191/149/66 193/151/66 195/153/66 197/155/66 199/157/66 201/159/66 203/161/66 205/163/66 207/165/66 209/167/66 211/169/66 213/171/66 215/173/66 217/175/66 219/177/66 221/179/66
f 226/180/67 223/181/68 383/85/68 384/84/67
f 228/182/69 226/180/67 384/84/67 385/115/69
f 230/183/70 228/182/69 385/115/69 386/114/70
f 232/184/71 230/183/70 386/114/70 387/113/71
f 234/185/72 232/184/71 387/113/71 388/112/72
f 236/186/73 234/185/72 388/112/72 389/111/73
f 238/187/74 236/186/73 389/111/73 390/110/74
f 240/188/75 238/187/74 390/110/74 391/109/75
f 242/189/76 240/188/75 391/109/75 392/108/76
f 244/190/77 242/189/76 392/108/76 393/107/77
f 246/191/78 244/190/77 393/107/77 394/106/78
f 248/192/79 246/191/78 394/106/78 395/105/79
f 250/193/80 248/192/79 395/105/79 396/104/80
f 252/194/81 250/193/80 396/104/80 397/103/81
f 254/195/82 252/194/81 397/103/81 398/102/82
f 256/196/83 254/195/82 398/102/82 399/101/83
f 258/197/84 256/196/83 399/101/83 400/100/84
f 260/198/85 258/197/84 400/100/84 401/99/85
f 262/199/86 260/198/85 401/99/85 402/98/86
f 264/200/87 262/199/86 402/98/86 403/97/87
f 266/201/88 264/200/87 403/97/87 404/96/88
f 268/202/89 266/201/88 404/96/88 405/95/89
f 270/203/116 268/202/89 405/95/89 406/94/90
f 272/204/117 270/203/116 406/94/90 407/93/117
f 274/205/92 272/204/117 407/93/117 408/92/92
f 276/206/93 274/205/92 408/92/92 409/91/93
f 278/207/94 276/206/93 409/91/93 410/90/94
f 280/208/95 278/207/94 410/90/94 411/89/95
f 282/209/96 280/208/95 411/89/95 412/88/96
f 284/210/97 282/209/96 412/88/96 413/87/97
f 286/211/98 284/210/97 413/87/97 414/86/98
f 381/331/118 319/297/118 321/233/119 351/332/119
f 352/333/120 322/234/120 323/235/121 353/334/121
f 382/335/122 320/263/122 319/264/118 381/336/118
f 380/337/123 350/262/123 320/263/122 382/335/122
f 379/338/124 349/261/124 350/262/123 380/337/123
f 378/339/125 348/260/125 349/261/124 379/338/124
f 377/340/126 347/259/126 348/260/125 378/339/125
f 376/341/127 346/258/127 347/259/126 377/340/126
f 375/342/128 345/257/128 346/258/127 376/341/127
f 374/343/129 344/256/129 345/257/128 375/342/128
f 373/344/130 343/255/130 344/256/129 374/343/129
f 372/345/131 342/254/131 343/255/130 373/344/130
f 371/346/132 341/253/132 342/254/131 372/345/131
f 370/347/133 340/252/133 341/253/132 371/346/132
f 369/348/134 339/251/134 340/252/133 370/347/133
f 368/349/135 338/250/135 339/251/134 369/348/134
f 367/350/136 337/249/136 338/250/135 368/349/135
f 366/351/137 336/248/137 337/249/136 367/350/136
f 365/352/138 335/247/138 336/248/137 366/351/137
f 364/353/139 334/246/139 335/247/138 365/352/138
f 363/354/140 333/245/140 334/246/139 364/353/139
f 362/355/141 332/244/141 333/245/140 363/354/140
f 361/356/142 331/243/142 332/244/141 362/355/141
f 360/357/143 330/242/143 331/243/142 361/356/142
f 359/358/144 329/241/144 330/242/143 360/357/143
f 358/359/145 328/240/145 329/241/144 359/358/144
f 357/360/146 327/239/146 328/240/145 358/359/145
f 356/361/147 326/238/147 327/239/146 357/360/146
f 355/362/148 325/237/148 326/238/147 356/361/147
f 354/363/149 324/236/149 325/237/148 355/362/148
f 353/334/121 323/235/121 324/236/149 354/363/149
f 351/332/119 321/233/119 322/234/120 352/333/120
f 415/364/33 416/365/33 384/84/33 383/85/33
f 416/365/33 417/366/33 385/115/33 384/84/33
f 417/366/33 418/367/33 386/114/33 385/115/33
f 418/367/33 419/368/33 387/113/33 386/114/33
f 419/368/33 420/369/33 388/112/33 387/113/33
f 420/369/33 421/370/33 389/111/33 388/112/33
f 421/370/33 422/371/33 390/110/33 389/111/33
f 422/371/33 423/372/33 391/109/33 390/110/33
f 423/372/33 424/373/33 392/108/33 391/109/33
f 424/373/33 425/374/33 393/107/33 392/108/33
f 425/374/33 426/375/33 394/106/33 393/107/33
f 426/375/33 427/376/33 395/105/33 394/106/33
f 427/376/33 428/377/33 396/104/33 395/105/33
f 428/377/33 429/378/33 397/103/33 396/104/33
f 429/378/33 430/379/33 398/102/33 397/103/33
f 430/379/33 431/380/33 399/101/33 398/102/33
f 431/380/33 432/381/33 400/100/33 399/101/33
f 432/381/33 433/382/33 401/99/33 400/100/33
f 433/382/33 434/383/33 402/98/33 401/99/33
f 434/383/33 435/384/33 403/97/33 402/98/33
f 435/384/33 436/385/33 404/96/33 403/97/33
f 436/385/33 437/386/33 405/95/33 404/96/33
f 437/386/33 438/387/33 406/94/33 405/95/33
f 438/387/33 439/388/33 407/93/33 406/94/33
f 439/388/33 440/389/33 408/92/33 407/93/33
f 440/389/33 441/390/33 409/91/33 408/92/33
f 441/390/33 442/391/33 410/90/33 409/91/33
f 442/391/33 443/392/33 411/89/33 410/90/33
f 443/392/33 444/393/33 412/88/33 411/89/33
f 444/393/33 445/394/33 413/87/33 412/88/33
f 445/394/33 446/395/33 414/86/33 413/87/33
f 446/395/33 415/364/33 383/85/33 414/86/33
f 224/266/150 225/265/151 416/365/151 415/364/150
f 225/265/151 227/296/152 417/366/152 416/365/151
f 227/296/152 229/295/153 418/367/153 417/366/152
f 229/295/153 231/294/154 419/368/154 418/367/153
f 231/294/154 233/293/155 420/369/155 419/368/154
f 233/293/155 235/292/156 421/370/156 420/369/155
f 235/292/156 237/291/157 422/371/157 421/370/156
f 237/291/157 239/290/158 423/372/158 422/371/157
f 239/290/158 241/289/159 424/373/159 423/372/158
f 241/289/159 243/288/160 425/374/160 424/373/159
f 243/288/160 245/287/161 426/375/161 425/374/160
f 245/287/161 247/286/162 427/376/162 426/375/161
f 247/286/162 249/285/163 428/377/163 427/376/162
f 249/285/163 251/284/164 429/378/164 428/377/163
f 251/284/164 253/283/165 430/379/165 429/378/164
f 253/283/165 255/282/166 431/380/166 430/379/165
f 255/282/166 257/281/167 432/381/167 431/380/166
f 257/281/167 259/280/168 433/382/168 432/381/167
f 259/280/168 261/279/169 434/383/169 433/382/168
f 261/279/169 263/278/170 435/384/170 434/383/169
f 263/278/170 265/277/171 436/385/171 435/384/170
f 265/277/171 267/276/172 437/386/172 436/385/171
f 267/276/172 269/275/173 438/387/173 437/386/172
f 269/275/173 271/274/174 439/388/174 438/387/173
f 271/274/174 273/273/175 440/389/175 439/388/174
f 273/273/175 275/272/176 441/390/176 440/389/175
f 275/272/176 277/271/177 442/391/177 441/390/176
f 277/271/177 279/270/178 443/392/178 442/391/177
f 279/270/178 281/269/179 444/393/179 443/392/178
f 281/269/179 283/268/180 445/394/180 444/393/179
f 283/268/180 285/267/181 446/395/181 445/394/180
f 285/267/181 224/266/150 415/364/150 446/395/181
f 223/181/68 286/211/98 414/86/98 383/85/68
f 447/396/182 453/397/183 458/398/184 452/399/185
f 448/400/186 454/401/187 453/402/183 447/403/182
f 449/404/188 455/405/189 454/401/187 448/400/186
f 450/406/190 456/407/191 455/405/189 449/404/188
f 451/408/192 457/409/193 456/407/191 450/406/190
f 452/399/185 458/398/184 457/409/193 451/408/192
f 453/397/183 459/410/194 464/411/195 458/398/184
f 454/401/187 460/412/196 459/413/194 453/402/183
f 455/405/189 461/414/197 460/412/196 454/401/187
f 456/407/191 462/415/198 461/414/197 455/405/189
f 457/409/193 463/416/199 462/415/198 456/407/191
f 458/398/184 464/411/195 463/416/199 457/409/193
f 459/410/194 465/417/200 470/418/201 464/411/195
f 460/412/196 466/419/202 465/420/200 459/413/194
f 461/414/197 467/421/203 466/419/202 460/412/196
f 462/415/198 468/422/204 467/421/203 461/414/197
f 463/416/199 469/423/205 468/422/204 462/415/198
f 464/411/195 470/418/201 469/423/205 463/416/199
f 465/417/200 471/424/206 476/425/207 470/418/201
f 466/419/202 472/426/208 471/427/206 465/420/200
f 467/421/203 473/428/209 472/426/208 466/419/202
f 468/422/204 474/429/210 473/428/209 467/421/203
f 469/423/205 475/430/211 474/429/210 468/422/204
f 470/418/201 476/425/207 475/430/211 469/423/205
f 471/424/206 477/431/212 482/432/213 476/425/207
f 472/426/208 478/433/214 477/434/212 471/427/206
f 473/428/209 479/435/215 478/433/214 472/426/208
f 474/429/210 480/436/216 479/435/215 473/428/209
f 475/430/211 481/437/217 480/436/216 474/429/210
f 476/425/207 482/432/213 481/437/217 475/430/211
f 477/431/212 483/438/218 488/439/219 482/432/213
f 478/433/214 484/440/220 483/441/218 477/434/212
f 479/435/215 485/442/221 484/440/220 478/433/214
f 480/436/216 486/443/222 485/442/221 479/435/215
f 481/437/217 487/444/223 486/443/222 480/436/216
f 482/432/213 488/439/219 487/444/223 481/437/217
f 483/438/218 489/445/224 494/446/225 488/439/219
f 484/440/220 490/447/226 489/448/224 483/441/218
f 485/442/221 491/449/227 490/447/226 484/440/220
f 486/443/222 492/450/228 491/449/227 485/442/221
f 487/444/223 493/451/229 492/450/228 486/443/222
f 488/439/219 494/446/225 493/451/229 487/444/223
f 564/452/230 565/453/231 587/453/231 585/452/230
f 549/216/232 554/454/233 590/454/233 580/216/232
f 560/455/234 555/216/235 567/216/235 577/455/234
f 497/456/236 496/457/237 570/457/237 572/456/236
f 565/453/231 566/454/238 589/454/238 587/453/231
f 499/458/239 498/215/240 574/215/240 576/458/239
f 501/396/241 507/397/242 512/398/243 506/399/244
f 502/400/245 508/401/246 507/402/242 501/403/241
f 503/404/247 509/405/248 508/401/246 502/400/245
f 504/406/249 510/407/250 509/405/248 503/404/247
f 505/408/251 511/409/252 510/407/250 504/406/249
f 506/399/244 512/398/243 511/409/252 505/408/251
f 507/397/242 513/410/253 518/411/254 512/398/243
f 508/401/246 514/412/255 513/413/253 507/402/242
f 509/405/248 515/414/256 514/412/255 508/401/246
f 510/407/250 516/415/257 515/414/256 509/405/248
f 511/409/252 517/416/258 516/415/257 510/407/250
f 512/398/243 518/411/254 517/416/258 511/409/252
f 513/410/253 519/417/259 524/418/260 518/411/254
f 514/412/255 520/419/261 519/420/259 513/413/253
f 515/414/256 521/421/262 520/419/261 514/412/255
f 516/415/257 522/422/263 521/421/262 515/414/256
f 517/416/258 523/423/264 522/422/263 516/415/257
f 518/411/254 524/418/260 523/423/264 517/416/258
f 519/417/259 525/424/265 530/425/266 524/418/260
f 520/419/261 526/426/267 525/427/265 519/420/259
f 521/421/262 527/428/268 526/426/267 520/419/261
f 522/422/263 528/429/269 527/428/268 521/421/262
f 523/423/264 529/430/270 528/429/269 522/422/263
f 524/418/260 530/425/266 529/430/270 523/423/264
f 525/424/265 531/431/271 536/432/272 530/425/266
f 526/426/267 532/433/273 531/434/271 525/427/265
f 527/428/268 533/435/274 532/433/273 526/426/267
f 528/429/269 534/436/275 533/435/274 527/428/268
f 529/430/270 535/437/276 534/436/275 528/429/269
f 530/425/266 536/432/272 535/437/276 529/430/270
f 531/431/271 537/438/277 542/439/278 536/432/272
f 532/433/273 538/440/279 537/441/277 531/434/271
f 533/435/274 539/442/280 538/440/279 532/433/273
f 534/436/275 540/443/281 539/442/280 533/435/274
f 535/437/276 541/444/282 540/443/281 534/436/275
f 536/432/272 542/439/278 541/444/282 535/437/276
f 537/438/277 543/445/283 548/446/284 542/439/278
f 538/440/279 544/447/285 543/448/283 537/441/277
f 539/442/280 545/449/286 544/447/285 538/440/279
f 540/443/281 546/450/287 545/449/286 539/442/280
f 541/444/282 547/451/288 546/450/287 540/443/281
f 542/439/278 548/446/284 547/451/288 541/444/282
f 555/459/235 556/460/289 569/460/289 567/459/235
f 551/456/290 550/457/291 582/457/291 584/456/290
f 556/460/289 557/461/292 571/461/292 569/460/289
f 553/458/293 552/215/294 586/215/294 588/458/293
f 566/454/238 561/216/295 579/216/296 589/454/238
f 557/461/292 558/215/297 573/215/297 571/461/292
f 549/216/66 550/457/66 551/456/66 552/215/66 553/458/66 554/454/66
f 495/216/66 496/457/66 497/456/66 498/215/66 499/458/66 500/454/66
f 494/446/225 560/455/298 559/458/299 493/451/229
f 493/451/229 559/458/299 558/215/300 492/450/228
f 492/450/228 558/215/300 557/461/301 491/449/227
f 491/449/227 557/461/301 556/460/302 490/447/226
f 490/447/226 556/460/302 555/459/303 489/448/224
f 489/445/224 555/216/303 560/455/298 494/446/225
f 548/446/284 566/454/304 565/453/305 547/451/288
f 547/451/288 565/453/305 564/452/306 546/450/287
f 546/450/287 564/452/306 563/461/307 545/449/286
f 545/449/286 563/461/307 562/462/308 544/447/285
f 544/447/285 562/462/308 561/459/309 543/448/283
f 543/445/283 561/216/309 566/454/304 548/446/284
f 567/216/310 568/216/310 578/454/311 577/455/311
f 569/460/312 570/457/312 568/459/310 567/459/310
f 571/461/313 572/456/313 570/457/312 569/460/312
f 573/215/314 574/215/314 572/456/313 571/461/313
f 575/458/315 576/458/315 574/215/314 573/215/314
f 577/455/311 578/454/311 576/458/315 575/458/315
f 579/216/316 580/216/316 590/454/317 589/454/317
f 581/462/318 582/457/318 580/459/316 579/459/316
f 583/461/319 584/456/319 582/457/318 581/462/318
f 585/452/320 586/215/320 584/456/319 583/461/319
f 587/453/321 588/458/321 586/215/320 585/452/320
f 589/454/317 590/454/317 588/458/321 587/453/321
f 550/457/291 549/216/232 580/216/232 582/457/291
f 563/461/322 564/452/230 585/452/230 583/461/322
f 495/216/323 500/454/324 578/454/324 568/216/323
f 554/454/233 553/458/293 588/458/293 590/454/233
f 552/215/294 551/456/290 584/456/290 586/215/294
f 559/458/325 560/455/234 577/455/234 575/458/325
f 562/462/326 563/461/322 583/461/322 581/462/326
f 496/457/237 495/216/323 568/216/323 570/457/237
f 500/454/324 499/458/239 576/458/239 578/454/324
f 558/215/297 559/458/325 575/458/325 573/215/297
f 561/459/295 562/462/326 581/462/326 579/459/296
f 498/215/240 497/456/236 572/456/236 574/215/240
s 0
f 614/463/33 613/464/33 610/465/33 611/466/33
f 617/467/334 618/468/334 615/469/334 616/431/334
f 608/470/335 605/417/335 615/469/335 618/468/335
f 614/463/33 617/466/33 616/465/33 613/464/33
f 607/471/66 604/472/66 606/470/66 603/473/66
f 604/472/336 614/474/336 611/475/336 612/468/336 606/470/336
f 611/467/337 610/431/337 609/469/337 612/468/337
f 606/470/338 612/468/338 609/469/338 603/417/338
f 604/472/336 608/470/336 618/468/336 617/475/336 614/474/336
f 607/471/66 605/473/66 608/470/66 604/472/66
f 603/420/339 609/476/339 610/477/339 613/478/339 607/479/339
f 605/420/339 607/479/339 613/478/339 616/477/339 615/476/339
f 630/463/33 629/464/33 626/465/33 627/466/33
f 633/467/340 634/468/340 631/469/340 632/431/340
f 624/470/339 621/417/339 631/469/339 634/468/339
f 630/463/33 633/466/33 632/465/33 629/464/33
f 623/471/66 620/472/66 622/470/66 619/473/66
f 620/472/335 630/474/335 627/475/335 628/468/335 622/470/335
f 627/467/341 626/431/341 625/469/341 628/468/341
f 622/470/336 628/468/336 625/469/336 619/417/336
f 620/472/335 624/470/335 634/468/335 633/475/335 630/474/335
f 623/471/66 621/473/66 624/470/66 620/472/66
f 619/420/338 625/476/338 626/477/338 629/478/338 623/479/338
f 621/420/338 623/479/338 629/478/338 632/477/338 631/476/338
s 1
usemtl Material.010
f 648/234/2 682/489/2 684/490/3 649/235/3
f 650/236/4 686/491/4 688/492/5 651/237/5
f 651/237/5 688/492/5 690/493/6 652/238/6
f 652/238/6 690/494/6 692/495/7 653/239/7
f 653/239/7 692/496/7 694/497/8 654/240/8
f 654/240/8 694/497/8 696/498/9 655/241/9
f 655/241/9 696/499/9 698/500/10 656/242/10
f 656/242/10 698/500/10 700/501/11 657/243/11
f 657/243/11 700/502/11 702/503/12 658/244/12
f 658/244/12 702/504/12 704/505/13 659/245/13
f 659/245/13 704/505/13 706/506/14 660/246/14
f 660/246/14 706/507/14 708/508/15 661/247/15
f 661/247/15 708/508/15 710/509/16 662/248/16
f 662/248/16 710/509/16 712/510/17 663/249/17
f 663/249/17 712/511/17 714/512/18 664/250/18
f 664/250/18 714/512/18 716/513/19 665/251/19
f 665/251/19 716/514/19 718/515/20 666/252/20
f 666/252/20 718/516/20 720/517/21 667/253/21
f 667/253/21 720/517/21 722/518/22 668/254/22
f 668/254/22 722/519/22 724/520/23 669/255/23
f 669/255/23 724/520/23 726/521/24 670/256/24
f 670/256/24 726/521/24 728/522/25 671/257/25
f 671/257/25 728/523/25 730/524/26 672/258/26
f 672/258/26 730/525/26 732/526/27 673/259/27
f 673/259/27 732/527/27 734/528/28 674/260/28
f 674/260/28 734/529/28 736/530/29 675/261/29
f 675/261/29 736/530/29 738/531/30 676/262/30
f 676/262/30 738/532/30 740/533/31 646/263/31
f 645/297/32 677/534/32 680/535/1 647/233/1
f 649/235/3 684/536/3 686/537/4 650/236/4
f 647/233/1 680/538/1 682/489/2 648/234/2
f 646/263/31 740/533/31 677/539/32 645/264/32
f 680/2/67 677/540/68 678/541/68 679/542/67
f 682/489/69 680/538/67 679/542/67 681/543/69
f 684/490/70 682/489/69 681/543/69 683/544/70
f 686/537/71 684/536/70 683/544/70 685/545/71
f 688/492/72 686/491/71 685/545/71 687/546/72
f 690/493/73 688/492/72 687/546/72 689/547/73
f 692/495/74 690/494/73 689/547/73 691/548/74
f 694/497/75 692/496/74 691/548/74 693/549/75
f 696/498/76 694/497/75 693/549/75 695/550/76
f 698/500/77 696/499/76 695/550/76 697/551/77
f 700/501/78 698/500/77 697/551/77 699/552/78
f 702/503/79 700/502/78 699/552/78 701/553/79
f 704/505/80 702/504/79 701/553/79 703/554/80
f 706/506/81 704/505/80 703/554/80 705/555/81
f 708/508/82 706/507/81 705/555/81 707/556/82
f 710/509/83 708/508/82 707/556/82 709/557/83
f 712/510/84 710/509/83 709/557/83 711/558/84
f 714/512/85 712/511/84 711/558/84 713/559/85
f 716/513/86 714/512/85 713/559/85 715/560/86
f 718/515/87 716/514/86 715/560/86 717/561/87
f 720/517/88 718/516/87 717/561/87 719/562/88
f 722/518/89 720/517/88 719/562/88 721/563/89
f 724/520/116 722/519/89 721/563/89 723/564/116
f 726/521/91 724/520/116 723/564/116 725/565/91
f 728/522/92 726/521/91 725/565/91 727/566/92
f 730/524/93 728/523/92 727/566/92 729/567/93
f 732/526/94 730/525/93 729/567/93 731/568/94
f 734/528/95 732/527/94 731/568/94 733/569/95
f 736/530/96 734/529/95 733/569/95 735/570/96
f 738/531/97 736/530/96 735/570/96 737/571/97
f 740/533/98 738/532/97 737/571/97 739/572/98
f 677/539/68 740/533/98 739/572/98 678/541/68
f 679/542/33 678/541/33 739/572/33 737/571/33 735/570/33 733/569/33 731/568/33 729/567/33 727/566/33 725/565/33 723/564/33 721/563/33 719/562/33 717/561/33 715/560/33 713/559/33 711/558/33 709/557/33 707/556/33 705/555/33 703/554/33 701/553/33 699/552/33 697/551/33 695/550/33 693/549/33 691/548/33 689/547/33 687/546/33 685/545/33 683/544/33 681/543/33
usemtl Material.002
f 160/116/34 162/117/35 161/118/35 159/119/34
f 162/117/35 164/120/36 163/121/36 161/118/35
f 164/120/36 166/122/37 165/123/37 163/121/36
f 166/122/37 168/124/38 167/125/38 165/123/37
f 168/124/38 170/126/39 169/127/39 167/125/38
f 170/126/39 172/128/40 171/129/40 169/127/39
f 172/128/40 174/130/115 173/131/41 171/129/40
f 174/130/115 176/132/42 175/133/42 173/131/41
f 176/132/42 178/134/43 177/135/43 175/133/42
f 178/134/43 180/136/44 179/137/44 177/135/43
f 180/136/44 182/138/45 181/139/45 179/137/44
f 182/138/45 184/140/46 183/141/46 181/139/45
f 184/140/46 186/142/47 185/143/47 183/141/46
f 186/142/47 188/144/48 187/145/48 185/143/47
f 188/144/48 190/146/49 189/147/49 187/145/48
f 190/146/49 192/148/50 191/149/50 189/147/49
f 192/148/50 194/150/51 193/151/51 191/149/50
f 194/150/51 196/152/52 195/153/52 193/151/51
f 196/152/52 198/154/53 197/155/53 195/153/52
f 198/154/53 200/156/54 199/157/54 197/155/53
f 200/156/54 202/158/55 201/159/55 199/157/54
f 202/158/55 204/160/56 203/161/56 201/159/55
f 204/160/56 206/162/57 205/163/57 203/161/56
f 206/162/57 208/164/58 207/165/58 205/163/57
f 208/164/58 210/166/59 209/167/59 207/165/58
f 210/166/59 212/168/60 211/169/60 209/167/59
f 212/168/60 214/170/61 213/171/61 211/169/60
f 214/170/61 216/172/62 215/173/62 213/171/61
f 216/172/62 218/174/63 217/175/63 215/173/62
f 218/174/63 220/176/64 219/177/64 217/175/63
f 220/176/64 222/178/65 221/179/65 219/177/64
f 222/178/65 160/116/34 159/119/34 221/179/65
f 160/212/32 287/298/32 288/299/1 162/1/1
f 164/4/2 290/300/2 291/301/3 166/5/3
f 222/80/31 289/302/31 287/303/32 160/82/32
f 220/77/30 318/304/30 289/302/31 222/80/31
f 218/74/29 317/305/29 318/304/30 220/77/30
f 216/71/28 316/306/28 317/305/29 218/74/29
f 214/68/27 315/307/27 316/306/28 216/71/28
f 212/65/26 314/308/26 315/307/27 214/68/27
f 210/62/25 313/309/25 314/308/26 212/65/26
f 208/60/24 312/310/24 313/309/25 210/62/25
f 206/58/23 311/311/23 312/310/24 208/60/24
f 204/55/22 310/312/22 311/311/23 206/58/23
f 202/53/21 309/313/21 310/312/22 204/55/22
f 200/50/20 308/314/20 309/313/21 202/53/21
f 198/47/19 307/315/19 308/314/20 200/50/20
f 196/45/18 306/316/18 307/315/19 198/47/19
f 194/42/17 305/317/17 306/316/18 196/45/18
f 192/40/16 304/318/16 305/317/17 194/42/17
f 190/38/15 303/319/15 304/318/16 192/40/16
f 188/35/14 302/320/14 303/319/15 190/38/15
f 186/33/13 301/321/13 302/320/14 188/35/14
f 184/30/12 300/322/12 301/321/13 186/33/13
f 182/27/11 299/323/11 300/322/12 184/30/12
f 180/25/10 298/324/10 299/323/11 182/27/11
f 178/22/9 297/325/9 298/324/10 180/25/10
f 176/19/8 296/326/8 297/325/9 178/22/9
f 174/17/7 295/327/7 296/326/8 176/19/8
f 172/14/6 294/328/6 295/327/7 174/17/7
f 170/12/5 293/329/5 294/328/6 172/14/6
f 168/8/4 292/330/4 293/329/5 170/11/5
f 166/5/3 291/301/3 292/330/4 168/8/4
f 162/1/1 288/299/1 290/300/2 164/4/2
f 288/299/119 351/332/119 352/333/120 290/300/120
f 291/301/121 353/334/121 354/363/149 292/330/149
f 292/330/149 354/363/149 355/362/148 293/329/148
f 293/329/148 355/362/148 356/361/147 294/328/147
f 294/328/147 356/361/147 357/360/146 295/327/146
f 295/327/146 357/360/146 358/359/145 296/326/145
f 296/326/145 358/359/145 359/358/144 297/325/144
f 297/325/144 359/358/144 360/357/143 298/324/143
f 298/324/143 360/357/143 361/356/142 299/323/142
f 299/323/142 361/356/142 362/355/141 300/322/141
f 300/322/141 362/355/141 363/354/140 301/321/140
f 301/321/140 363/354/140 364/353/139 302/320/139
f 302/320/139 364/353/139 365/352/138 303/319/138
f 303/319/138 365/352/138 366/351/137 304/318/137
f 304/318/137 366/351/137 367/350/136 305/317/136
f 305/317/136 367/350/136 368/349/135 306/316/135
f 306/316/135 368/349/135 369/348/134 307/315/134
f 307/315/134 369/348/134 370/347/133 308/314/133
f 308/314/133 370/347/133 371/346/132 309/313/132
f 309/313/132 371/346/132 372/345/131 310/312/131
f 310/312/131 372/345/131 373/344/130 311/311/130
f 311/311/130 373/344/130 374/343/129 312/310/129
f 312/310/129 374/343/129 375/342/128 313/309/128
f 313/309/128 375/342/128 376/341/127 314/308/127
f 314/308/127 376/341/127 377/340/126 315/307/126
f 315/307/126 377/340/126 378/339/125 316/306/125
f 316/306/125 378/339/125 379/338/124 317/305/124
f 317/305/124 379/338/124 380/337/123 318/304/123
f 318/304/123 380/337/123 382/335/122 289/302/122
f 289/302/122 382/335/122 381/336/118 287/303/118
f 290/300/120 352/333/120 353/334/121 291/301/121
f 287/298/118 381/331/118 351/332/119 288/299/119
s 0
f 635/420/342 636/434/342 638/480/342 637/481/342
f 637/481/343 638/480/343 640/436/343 639/422/343
f 642/482/344 643/483/344 636/431/344 635/417/344
f 640/436/33 638/450/33 636/484/33 643/485/33 644/486/33
f 639/422/345 640/436/345 644/486/345 641/487/345
f 643/483/346 642/482/346 641/487/346 644/486/346
f 637/407/66 639/422/66 641/487/66 642/488/66 635/473/66
s 1
usemtl Material
f 321/233/1 226/2/1 228/3/2 322/234/2
f 323/235/3 230/6/3 232/7/4 324/236/4
f 324/236/4 232/9/4 234/10/5 325/237/5
f 325/237/5 234/10/5 236/13/6 326/238/6
f 326/238/6 236/15/6 238/16/7 327/239/7
f 327/239/7 238/16/7 240/18/8 328/240/8
f 328/240/8 240/20/8 242/21/9 329/241/9
f 329/241/9 242/23/9 244/24/10 330/242/10
f 330/242/10 244/24/10 246/26/11 331/243/11
f 331/243/11 246/28/11 248/29/12 332/244/12
f 332/244/12 248/31/12 250/32/13 333/245/13
f 333/245/13 250/32/13 252/34/14 334/246/14
f 334/246/14 252/36/14 254/37/15 335/247/15
f 335/247/15 254/37/15 256/39/16 336/248/16
f 336/248/16 256/39/16 258/41/17 337/249/17
f 337/249/17 258/43/17 260/44/18 338/250/18
f 338/250/18 260/44/18 262/46/19 339/251/19
f 339/251/19 262/48/19 264/49/20 340/252/20
f 340/252/20 264/51/20 266/52/21 341/253/21
f 341/253/21 266/52/21 268/54/22 342/254/22
f 342/254/22 268/56/22 270/57/23 343/255/23
f 343/255/23 270/57/23 272/59/24 344/256/24
f 344/256/24 272/59/24 274/61/25 345/257/25
f 345/257/25 274/63/25 276/64/26 346/258/26
f 346/258/26 276/66/26 278/67/27 347/259/27
f 347/259/27 278/69/27 280/70/28 348/260/28
f 348/260/28 280/72/28 282/73/29 349/261/29
f 349/261/29 282/75/29 284/76/30 350/262/30
f 350/262/30 284/78/30 286/79/31 320/263/31
f 320/263/31 286/79/31 223/81/32 319/264/32
f 322/234/2 228/3/2 230/83/3 323/235/3
f 319/297/32 223/213/32 226/214/1 321/233/1
